<mxfile host="app.diagrams.net" agent="Mozilla/5.0 (X11; Linux x86_64; rv:141.0) Gecko/20100101 Firefox/141.0" version="28.0.7">
  <diagram name="Page-1" id="gS2LgmFRI_Yv2ZtHPriJ">
    <mxGraphModel dx="830" dy="460" grid="0" gridSize="10" guides="1" tooltips="1" connect="1" arrows="1" fold="1" page="1" pageScale="1" pageWidth="850" pageHeight="1100" math="0" shadow="0">
      <root>
        <mxCell id="0" />
        <mxCell id="1" parent="0" />
        <mxCell id="HArgXZm7dbV3BcQ24lHY-28" value="" style="rounded=0;whiteSpace=wrap;html=1;fillColor=none;" vertex="1" parent="1">
          <mxGeometry x="77" y="72" width="640" height="335" as="geometry" />
        </mxCell>
        <mxCell id="HArgXZm7dbV3BcQ24lHY-17" value="Vibration" style="rounded=0;whiteSpace=wrap;html=1;" vertex="1" parent="1">
          <mxGeometry x="103" y="92" width="120" height="60" as="geometry" />
        </mxCell>
        <mxCell id="HArgXZm7dbV3BcQ24lHY-20" value="Temperature" style="rounded=0;whiteSpace=wrap;html=1;" vertex="1" parent="1">
          <mxGeometry x="259" y="92" width="120" height="60" as="geometry" />
        </mxCell>
        <mxCell id="HArgXZm7dbV3BcQ24lHY-21" value="Power Cycling" style="rounded=0;whiteSpace=wrap;html=1;" vertex="1" parent="1">
          <mxGeometry x="415" y="92" width="120" height="60" as="geometry" />
        </mxCell>
        <mxCell id="HArgXZm7dbV3BcQ24lHY-23" value="Light camera testing" style="rounded=0;whiteSpace=wrap;html=1;" vertex="1" parent="1">
          <mxGeometry x="574" y="92" width="120" height="60" as="geometry" />
        </mxCell>
        <mxCell id="HArgXZm7dbV3BcQ24lHY-24" value="&lt;div align=&quot;left&quot;&gt;run stepper motor with small step size. Simulate small vibration to check if IMU can continue accurate tracking with or without calibration.&lt;/div&gt;" style="text;html=1;align=left;verticalAlign=middle;whiteSpace=wrap;rounded=0;" vertex="1" parent="1">
          <mxGeometry x="100" y="167" width="123" height="152" as="geometry" />
        </mxCell>
        <mxCell id="HArgXZm7dbV3BcQ24lHY-25" value="&lt;div align=&quot;left&quot;&gt;Run temperature tests for testing if raspberry pi will enter low power state or shut down.&lt;br&gt;&lt;br&gt;Dangerous. Do not continue without proper setup&lt;/div&gt;" style="text;html=1;align=left;verticalAlign=middle;whiteSpace=wrap;rounded=0;" vertex="1" parent="1">
          <mxGeometry x="259" y="161" width="123" height="152" as="geometry" />
        </mxCell>
        <mxCell id="HArgXZm7dbV3BcQ24lHY-26" value="Check if the raspberry pi can continue work without and remember last state.&amp;nbsp;" style="text;html=1;align=left;verticalAlign=middle;whiteSpace=wrap;rounded=0;" vertex="1" parent="1">
          <mxGeometry x="418" y="167" width="123" height="152" as="geometry" />
        </mxCell>
        <mxCell id="HArgXZm7dbV3BcQ24lHY-27" value="Simulate dark environment, star tracking, light reflection, error handling, no stars handling, moon, etc." style="text;html=1;align=left;verticalAlign=middle;whiteSpace=wrap;rounded=0;" vertex="1" parent="1">
          <mxGeometry x="577" y="164" width="123" height="152" as="geometry" />
        </mxCell>
        <mxCell id="HArgXZm7dbV3BcQ24lHY-31" value="" style="shape=image;verticalLabelPosition=bottom;labelBackgroundColor=default;verticalAlign=top;aspect=fixed;imageAspect=0;image=data:image/png,iVBORw0KGgoAAAANSUhEUgAAAfQAAAH0CAYAAADL1t+KAAAgAElEQVR4Xuy9CXhcZ3n3/Zx9Vo002lfLsmzJcWzHkbPCS0xCgAAJpUGhkAChpSkEwvoBhVJw+sJbulCgoWWHlABprFCyACEQGicBsjiKd1uyZcvWvksjzYxm5mzf9T9zHmXs2JJlLZZG98+XL2kWzZzznOX/3PdzLwIjCIIgCGLZIyz7PSAIgiAIggSdIAiCILIBstAJgiAIIgsgQc9ibNsWBEGws3gXCYIgCBcSdIIgCILIAkjQCYIgCCILIEEnCIIgiCyABJ0gCIIgsgASdIIgiBmwbVsUBMGa6X0EcSEhQScIgiCILIAEnSAIgiCyABJ0giAIgsgCSNAJgiAIIgsgQScIgiAWBKpWubiQoBMEQRBEFkCCThAEQRBZAAn6AkP5qwRBEMRiQIJOEARBEFkACTpBEARBZAEk6ARBEASRBZCgEwRBEEQWQIJOEARBEFkACTpBEARBZAEk6ARBEASRBZCgEwRBEEQWQIJOEARBrCiyteAXCTpBEARBZAEk6ARBEASRBZCgEwRBEEQWQIJOEARBEFkACTpBEARBZAEk6ARBEASRBZCgEwRBEEQWQIJOEARBnBXbtgVBEGwaoqUPCTpBEARBZAEk6ARBEASRBZCgEwRxQSBXLkHMLyToxKzJ1jrIBEEQyxkSdIIgljRkyRPEuUGCTqwISBQIgsh2SNAJgiAIIgsgQScIgiCILIAEnSAIgiCyABJ0giAIgsgCSNAJgiAIIgsgQScIgiCILIAEnSAIgiCyABJ0giAIgsgCSNAJgiAIIgsgQScIgiCILIAEnSAIYhqoGRGxXCBBJwiCIIgsgASdIAiCILIAEnSCIAiCyAJI0AmCIAgiCyBBJwiCIIgsgASdIAiCILIAEnSCIC4Itm0LgiDYF+TLCSILIUEnCIIgiCyABJ0gCIIgsgAS9EWCqk0RBEEQCwkJOkEQBEFkASToBEEQBJEFkKATBEEQRBZAgk4QBEEQWQAJOkEQBEFkASToBEEQBJEFkKATBEEQRBZAgk4QBEEQWQAJOkEQBEFkASToBEEQBJEFkKATBEEQRBZAgk4QBEEQWQAJOkEQBEFkAUtW0Kk7GUEQBEGcO0tW0AmCIAiCOHdI0AmCIAgiCyBBJwiCIIgsgASdIAiCILIAEnSCIAiCyAJI0AmCIAgiCyBBJwiCIIgsgASdIAiCILIAEnSCIAiCyAJI0AmCIAhiGpZL5VISdIIgCILIAkjQCYIgCCILIEEnCIIgiCyABJ0gCIIgsgASdIIgCILIAkjQCYIgCCILIEGfBtu2BUEQ7Cw4zgRBEESWQ4JOEARBEFkACTpBEASRdaxEDysJOkEQBEFkASToBEEQBJEFkKATBEEQRBZAgk4QBEEQWQAJOkEQBEFkASToBEEQBJEFkKATBEEQRBZAgk4QBEEQWQAJOkEQBHFBsG1bFATBuiBfnoWQoBMEQRBEFkCCThAEQRBZAAk6QSxjGhsbpR07dqAtILktCWKFQ4JOEIsAGkXccsstImNMevbZZ6VwOCyGw2FhbGysYHx8XEmlUh5VVT3JZDJgGEbQsiyvYRhKIpEoYMy5TkVd1/H3mf+ZoihxxpitKIphWZYhSZIuCIKu67rJGLM0TUspiqIzxuK2bccYYzGPxxP1+XyR4eHh5LZt21I7duzA3zhtgjFBaGpqwt8SBLHMIEEniHlg+/bt8kMPPRQYHh7OTybFolQqWqvrqZJYLFHBmOVjjIUYE8KMWYWCIBQJAn5nimUZZ/p2bnHD6ubXqIBJgSvoU0iSxEwzrb/u7/hbCL2dSqXwNF7E30n4ideAbTv6bUuSNGya5oSiKEO6rg8zxobxu2maQ5qmTXg8nmN+v38wGo32X3LJJf07d+5MzMNwEQSxAJCgE8RZQAQuRG/z5s2+cDhsQswg3D+996cXd/V2vSaVTF0sKuom0zTzLcsoYowFThPNGa8vj0d1xBX/Lcty/vPHZ4OLMn7i/V6vl01OTjJRFKf+Fq/hc2RZnnrOFXHnNbwXP3UdxjtzHuOzOHgsiqJt23bCNE1VkiTRNE3MAiKKohzTdf0wY6xb07ROr9fbXVBQ0CbLcl9LSwsmBQRBXABmvOEQxEqgoaFBqampEZqamlL4PTWYqpxUJ4va2zo+bDG20aOpFyeSaeNUFEQBggfx1k3HCnbEERYyF1IuzhBUwEX6dLGGp5sL7RQQ3FMt6VPec7qgZ4qxoijMMAzn/R6PZ+p3PlHg4DMytxl/w8F+QOix7Xg+GAyyiYkJZ+IAkskk32fHG4DvgpdAEAS80C9J0hFVVVsMw+gKh8NPyrI8Bsu/q6trZCWcSwRxoSBBJ1Y0l625rLIr3rt1eGD4FsNM3WgzwaupCkumsAZtybKkCnCLW46H2mLBQIhNTsaYYVpMlkRm2me2qF0Ld8od/grRdklb1SZLe9NhIWOikP4JsZckZer1M70P4psJhBXudm55c/HPBGa3+9iZmEDs8Tlw6fPfAT4r0+rPnAzgI7ilDyD+eD8mAHwZAGv3hmHI7vfBsu/RdX1fbm7uc+Fw+Fnbtjva29v7V/QJSBDzCAk6kZXAyo5ErhYrKvZ7CwsLJ1pbW/MHBoZfMzo69K5kMvl6xphXkqSkZVkaBEdRNIkLJgQcAuv1amxyMula0YLjHk8kYJFbTJbVtNXruqklUWKmZTJFVphu6ExgArNZWjdVRT3FArZsy3kd1jQmBBBBWVIZE/C7ZcP4x+OUnjDhDHcFfpIxK8KYPMqYBYs3KghsUpaFAQinrusJ27Yn/X5/1LbtuKqqCQTJIUBOlmXMEEzLskxN05x1ecMwBNM0BUmSvKZpwrcui6IoJxIJWZZlRRRFSdd1KZVKlU9OTqqqqvpSqVSOoii5uq7nMsZ8kiRppmkWQ8/dxXms8+PzseN4bsoTwNf54TXQdd1yPQb4s72iKLYGg8Hnc3Nz/6Sq6rHW1tYRitoniNlDgk4se+666y5t586dvvz8en1oqMOfSAxvbm/rusUWrLeJEsPar2rbtpoODLMcqzTT9X36+jGEFoLjWrtTvwPXkp1ab5ZFZWotG0INYecGMD4Xlitc9aqiWik9lRnkpsuSnNRNe69P80aSRmpA06QBWfb1arLUy2y1T/PLkYKCnM5oNGqFQiHjxhtvTG3fvv2UKDpY1TxCfaHBd23dulWORCJiRUWF0NbWJnR2dibXrl0bME0zLx6Pl9i2Xarreunk5GShaZohURTXJJNJxBeskmW5xHXtO+4IiLY7kYDAY/KB42R7PJ5W0zR/l5eX90I4HN5VUlLSs3PnzuhC7x9BLHdI0IllR2Njo/ell14q8Pv9oePHO25JJFIbDcNokESh3LKslM3slN/v9cdisVP80TwQLNP9rWmKE1AGNE1z1od5kJmqpgPWIPD4iffB6sTr8XjcsTaTjsUOi1q2DdPQRUFULNtCZHlUYMKEzYTnvR7fkChaPSF/XqfqkY+HtXA3C7He5ubmOILsvvjFL5qLJcoXEqTEvfjiiwXJZHJNKpW62DCM8omJCQh/rSiKG2zbLnYDEeFVkC3Lwv3JsG27W1GUF0pLSx/3er1/2Lhx4zFKrSOIV3Legk41eInForGxUW3b3VY7nBp+dU9Hz+tNZl2lyErYNM2UZQtBm6WjybmbO+32TgduQcQhyHyNF4LNBZ1HgMPFjt8zI74BrHQeGAYg8Ij0hqgbhuH40wUm75ZkqVtT5COyKh/NDeQe9Qa93dyqpOvk3MAxfv755/2qqpZOTExc0t/fv5kxVsMYa2CMFSNH3zCQam+ZkiSNyrL8h5KSkidzcnLu37ZtW/yee+5JH3CCWMGct6ATxEKBm/vxI8cvP9befr2eSl4WT0yuZoytg35qquacs8lU+v6teTyOGxyuXIg1xBvCjOcy3eMvR3mLiFJPr+2KtvN3fr+fxWIx52/xN4lEwknZcsUDLvsJxlgPY+IxWRYPlZYW7ykoKNgbCoU6Rg6P2HWvqdMRHb9Q47HSqaurC46OjhZpmrZxbGzsNclk8ppUKlXhrtUXMsb219fX/44x9suSkpK9O3fuRIwBQaw4SNBnYDHXKFcaEG4IIdzOTU1NG6LR6Ou6O7qvN21rk8CEMBK6GGMejIvX43XWtFN6aup3J6ra8W6/nEfN07a4W5yvl/P3iEI6L9sw00vRiCR33wMBx/eNCYK417aFPfn5Oce8Xu8uj8czvGXLlp6mpqa0b5644FxyySW5lmXVjY+Pr45EIpvHxsaukCRpvWEY46qq/mHDhg0Ph8PhP/7+97+nvHhixUCCTlwQGhoa1sRiidq+vr53RMZGtzLGLoarXFVVARXOECmOx8iBxuNoLB0TxaPJgd/nZ0k9nRuO9W8INSztNGkrnKdXOVHkrhsdwo2ALEEQUqJkt+i6ubegIO+PublFz0qS2dHS0hK9++67nfX304PQiKXL7bff7tm1a1ddNBq9fnR09NqJiYmqnJyczvLy8l9XVlb+9PHHH6c8eCKrIUEnFpTMNeS6mrqtkejEW8ZGR7cxm21IGsl8GMmZkeEAQowUMLjGETnOgcDz9W+4xuF2t5k1FcwGsM6NCYCmeR3XO0TbsizFtp1a5X0Ck54L+f3P5OQEnimuKO7etWtX34IOAHFBcMvksssvv7xiYmLi2pGRkct0XZ8sKir6Q2tr68MXZKMIYoEhQScWhNrau7QtW/qMvXtbt40M9L15eGzoDYyx9RBpaDaEmgs23OlYy4ZVzi1wTdUcwUagG1ziEHgAUUeg2mRi0nmvYelMUWBMi3ztHK5z3NBjgiCMybL2y4KCopcUhf3xiiuuaEV0NC2jrEwwudy8efNF0Wi0Drn7qVTqRHt7+76VORpENkKCTswLTiDb8eNyMikHDSNV393R9q745OSNlm0haEmGMMMtDusbFjQEGoIMsYaQAwg8XwPH63Cpx+IxR8R53XEnGt3QnWItWE9XNQXBcJYoiiiccowx9seCgoLf5+bmvtDW1nassbExsGPHDog7r45GEFOgAFFzc3P6BCSIZQ4JOjFnttRtKUuI+hW9vb23RcZGrxWYEOKpZLIkv9xwxK2cxoGAQ6AhzMDn9TkR5rzCGALXMt3ueD0+iW6hzBYFMWHZVkxR5V8Hg8EX/H7/kydPnjxMwk0QxEqFBJ2YFdxdvXnz5nIzaa49cfLEnbHJOHKG10qi5FRh4+lfvBDLVBcxZk+50J3uYm4JVKyHI3UsMh5xrHGeYpaTk8PGImMsJ5iD5iDoSRZjTNzv9ahPlpbX/KqysmDfk08+SdY3QRBERq9lgpgWRBDHYjFr9+7dl44MjrxvNDL2FsZYqc0sgVdW40VYeMU1/vj0LmQ8+typwuZGn8Max1o61saBKIg2BF/TtDbdMHeVlBT+xuPxPAs3OlnhBLHyoCJNM0MWOnFWbqq7KfhI6yMTGzZs2Nzf23/zyEjkHaLI1pqWKeTl5rHRsVEnyhxA1BFVjuA2RJpDxGGhI+0Mz2dWaOMdwCDokpDRXpTZSYEJOmNil9/vfSwUzHm4uLz4T7TGSRAEMTMk6MQZ2bp1a113R/fW4dGxj+t6slaRlRAEmDcbca1oZjGnXacT6MbhpVYh4ry3tvN+UXTEHkDkURhGFhXTDYw7HAj4HyksKvxFQ0PDQSriQhDLl/Ly8s2Tk5NFIyMjqOBHLBIk6MQprF279oqezp6/iScm36jISgFyuPEGnjbGg9Q8msexxpE2xnPDYY0jqC2zJjrWw2GRc7c7RNytyBYRBOFobk74F/mFFb9pa9u7mw4FQWQHubm5HxkbG3s1Y+yW7Nij5QEJOoEymtUjIyNv7e3tfa+u65coioI+2VNucljc3KqGhQ6B5u1FvZrPaQ+KvHGnFKuJ3t7p8qrAaWRiGgiGc56wmX3Uo2mPVFVXPdDa2voiDT9BZCXfFQThvdXV1W9pb28nK32RIEFfoVx11VXh4eHxNX19nXeNj49fjc5WaKzN88DhBkd7UFjhsLp9Pt+UwEPMAdbNE5PJqdQ0BLEhPxyv43PcADdbEZUTqld5tKy47Cetx1qbUXZ1hQ47QawUUI3vRlmW/0fX9UYKZF0cSNBXGA0NDaHhgeFtg8ODfz0ZT1wvKaIK0QawynmKGX8MqxvP4yfvZAahx/uwbu73BpzgN6SkwQ0Pa93tgjWgysofqlZX/bumaa0HDhzoX2FDTRArktraWq2trQ3et4sFQUhUVlY2dnR0/HJFDsYiQ4K+Qqivr88fHhy+Y2h4+H2KrNQinxyucESpw/rmUekQd77ejd+RgoafvJ84d8Xz1qQote6WaXVc6rIsNeeH8n/kz/U/euzYsc4VMrwEQbgUFxcXDQ4Ottq2nesuvT3KGLuJBmjhIUHPci6//PJ1u3fvvlPX9fejGFtubq6A6HNY1dy9npkXDlc7F2tY5Y65jXxxt8844A1QEARnm8yOxWNDfr/v/tKy0h8dPXp0T5YPKUEQ01BZWbm1s7PzBSzh4d4iy/JEbm7uzQMDA7SWvsCQoGcpa9asubq/v/+uaDR6i6IosJ4lpw+4617nxWAgzk7VNsuaqtB2OngPItd5ypmbjjYuSVJXQV7BZ31B30ttbW1dWTqUBEHMgpycnPeMj4/fm46JTbcwlmX5129729tuQnOkWXwUMUtI0LMEXkWpoaHh1S0HWj4XT06+UZZkQZCYI+K4qPBf9aQj1lNJnfn8XjYZSzhCzZumZKaZ8bxzN9WMp5thkfyx6urq7544ceLxLBk+giDmjy9LkvQ5LuZu/I1dXl5+A90zFhYS9CwAQSi2Yd/Q0dX9UcNIXSMwQeDlVyHoPO3MaXwiMWfdW5JFZhqWE8jGi7zgAoTLHXB3u9soBS1Jj/l8vp+sWbPmvv379x/PgmEjCGKecXs9/EhRFKTAOrE3PO5G07SHr7rqqtt27twZneevJVxI0JcxuHgqK6vfOTo4dBssckVWHCF3Sq2mks6eIegNFxWsbZ4Trqgy01MGw9H3qB4nWh1CDkuez6oVRbF0Xcf58XRxcfGP169fv2O+LkSqyUwQ2YsgCEcCgcDaiYkJp+lSLBZzvICGYUQqKipuo4j3hYMEfZlSXbnmHf19vR/VdX2LzWyP5dZU56CiG9bJRVlwLihudfuDPhaLOi1IHUEXmei42XkjlXA4rI+NjaG3+O/q6+v/bePGjc/QuhdBEOdCcXGxv7+//6QgCPm8ABWMDFjp8XgcYv9L27ZvPJfPImYPCfoyY33N+je1tbd9zrBNFIMRBOZEkTpudR70BksbNdZPh7vhAU9VwywabUrHx8ctVVXhWn+0srLya+3t7U8vs6GZF8h7QBDnT2Vl5ZrOzs4jkiSJWLZzo9yn4nA8Hk+qtLSUqsctECToy4Dt27fL99133//pOtl1Z8rQMbvV3NzvU0quAgg8ZsNMTAfB8ah2iD7Aa3iOr5EzxixRFCcURbm3qKjons7OzmPLYEgIIutx16PTNZSXCWVlZa/r6elBsKzIDQgUouKNmtzaFo/V1dU17tu3L+06JOYNEvQlTsOmhkuPtrX99UR84j2iIPp4eVVBcAXbcpqdpMXcrbHOhZunm8F6R4lWTjAQZEbKiKSMlBTKy/lHTdN+3tPT07rEh4IgZg15XBaX/Pz8D0UikXssyxL4Uh6W/rDsh8eI1UFzplWrVr3l5MmTv17crct+SNCXKA0NDaVHWo5+KhqL3soYK+JlVXmtdMNMOda4IInORcKjSXntdY57ATFFUnGxsYGBAfjiDUmRv7lmzep/bGlpGV6iQ0AQxDLD4/F8O5lM/nW6W7I45Qnk5aN5rI7f73+0vr7+5ubmZn2Z7eKShgR9CQFrAoHpfm/o75PJ+GdlWRZEUdRQH93v8zozXESwo2SrIivOOng0PsFM23JS0RzstFvd+dW2maZ4HJfX5OSknUwlxyUmf69uw+avHjy4q28J7TpBEMscd4ngj5IgXGW63RZhRIyPjzt7xstKu8uA5po1a95+7Nixh5b5bi8pSNCXEBWlq24eHOr/kmWxulAoKAyPDDNJlNKV3Gxjqhc5QuEkQWRwtwNJERmzbGaa6eW2zHanIpNsQRAGBFv4yfqN9f9JOeQEQSwE7vJGlyiKpdzdjlgd3L8QeIsAXFjt+O/mqP/GMIwbFmJbViok6EuAmpqaVw8MDH8oFp14m8AELRAIONY40jx4tDov1coFXGQC0/W0oCP4JJVMr5E76+OGgdalpsCElNfru6eopOin7e3t+5bArhIEkaXU1tYWtrW19efk5AiwyjP7P5wFe/Xq1W+gfunzBwn6BaKxsVEq2V0i39d3/1cmo9G3pFiqFpsCV7pupJeV8HvKSDouc1R542KOCm+iJDBZlJgspvuO8+h2uOMFJtiaqjRVVlf/azAY3EPrVMRyZTlGeq9Uamtrr+zo6PhjKpVyyk3y+J0ZeJYxhhRcYh4gQb9A5Ofn3xYdj/69aVqrRVFUeCU3Hkhi2uk2prDUeYoZLHdY7YBHjNqW5VjlTnW4ZNIWZemp0tLSr1955ZWPNTU1pS7Q7i07SDgIYm4UFxe/a2Bg4MeCIEjIsOFGyAzopaWlf9Hb2/s/M72RmBkS9EXm8vrL1+1tP/BPqWQCa0cavj7gDzhbgdQOm9npSHZmOiINcHFAwHlpVre+uiPw45EI/t6OxqIHc0Khe8bGxr4vCAIPkSMIglhw0E8iGo1+uq+v724E8/K185lw3fIDZWVlW3t6ejpnej8xPSToi0hFRcVd3V09/yAwIRdr4pjBQrhhlcNCBxBrbpFDyKd6kptpYc8sFIN67bIkDqmq9pXyyvL/OnLkyNAi7g5BEEQmv2CM/Vlubi6LRCJObM9MVjruaalUypZluTcvL+8TAwMDOwQU2SDOCxL0RWDt2rVX9Hb2fjmemHy1oihaSk850eumZTpr4bwwDGarEHc0S4HAY+0cF8XY2BgTEK/u/o3P62PxyXgfY+Jzq2uqPvqe97ynZ/v27cYi7ApBEMQraGhoUJqbm49omlaNqnCZZaanwy077dz7zHSazoHc3NwHPR7PkaKiot/s3r17PNPjSEtj00OCvoCsW7euIBqNvq+np+ejkiSVO7WNmei42KOxKJMlmelmymmgku5XzpgkuGlqblUl5Jej0QoKMmAioKmanUzpzxfmhL85MD7w0wXcfIIgiBlBaep/+7d/uzMej/+jYRg+xP5wQc8oMX1GeM2McDjMBgcHedzQhG3bXqzFu3FEKcuyBkVRHFZVdUiW5UFFUYYsy5rw+XwDkiRNCIIwpGlafyqVGpBlefj48eMRfOG2bds8O3fuTEcUrwBI0BeI8vLyK0dGRv51cnLyaq/XK0xOTqZLsaJtaUYEO46AIKIITHpDePczgPeLTHLW0lHyVRTEHkWRv71hzYbvNx9u7l2gTSeWMFTKlFhKIFvniSeeWB+JRPbi9pU2TOyp6pXwNk4Hb9fMy1Tz+x6sfP4avJaw4HlhLV5tTpZlmy9BiqJout+drqrFmCEIgm7bdruqqk2BQODBkZGRg0tp7BYCEvQFoLCw8MNDQ0N3i6IYnmmGytuZQtRx0qYSOl9Xch4bOqx6Ad3Mf7F2Xc1Xjhw5smsBNpkgCGJWYHJZVFT0nsHBwS8yxqoza2W4a+Mzfh4XZwBr3HW9O0YMF3Setpv5Xh4YzOvE4zX8juI1KJIpSVLEsqzmwsLCv6+srNzb3Nzs9ozObkjQ55FNmzYVtbW1fT+ZTL4FkZ6OZe02TjkrAmPBnACbGI86b/F6vCjTyhBYMjY2ZgtM7CrML/jcwPDAT+ZxUwmCIGYNX8NetWrVlpMnu/6WMfN1jLEwxBSiikwdWNQQYVjnM1noACIOgebvhbBjQoDn8BoC7PAYFjjuqcjuwXt51g/c+246L/yc3R6P57vhcPheRM2vtDV3EvR5oqyg8p29Q93fUBW1EGvdsLjBTIKOi4BfAIgIzbgA4qqqPrBmzZq7fT7f4EqZYRIEsTQJh2tzTHPk+vHxiU/Ztnl5OjvHdDQE97HMds3nWFRmCm6NA14elrvTT684xxu9uN+RQL8Ly7L+UFxc/K99fX2PruQoeRL0OdLQ0BA6euToNycmoreqiurkX+JE07wqd//MCHdPodlKMpmMm6Y5FA6Ht3/kIx+5j6LXCYK4UMDCzc/PL0+ljDsSicSdhmHk5eXlibCaIeCKIp1iWePexy1nWOm8ENbZ4GINQef1NngOO0/l5cASx/tdL0DKtu2opmk/CAQCPxscHNxzocZoKUGCfp5s27Yt0NXVte7ksZPfNmxzCyapmqqlAzcM3XGdI7ADFd+mA93Q8DeYdSZTSVtkwr2rS1Z/pq2vbfA8N40gCGJO1NTUhAYHB1+TSOgf1/UUSrOqmqY5BksmhpGasqh5xDruewAGykyCDiEH+Fs+GeCNXSDgWH7k90dY3pgsKIrykqqq33zTm970M6qGeSok6OcBgkHKysquHx2N/Jdgs2K0N0XddUeUk8nMKEynFvt0oE+5YRq2wIS+wsKCj/cP9j9wHptEEAQxZyorK9cMDg79dSKRfIeqqlXwgGMZEGIL8YVIQ2D5Wrltm1MR6BkR5zMuNWYCq5u767m7nS9VuoW2sDaOaLef5Ofn3zM8PNwy5x3NUkjQZ0ljY6P6298+8fVIJPIBQRAETVGd4giDQ4NOgxT8DlGHyCN//KwWOkbeRpqaZAtM+lF5VcmXOzo6js9ycwiCIOYEisL09PRc29s7eAdj1nUoSZ2fn+8ZHh52PnfVqlXs5MmTpxSL4S2aIegQY265Q5ARIAchdvtLTLtt/P08yA0Bb/i8aNQJEh5gjHV5vd576+rq7tuzZ8/YnHZ0BUCCPgvWrFnTcPJkx78YhrkNUeyYReLEtUzTKRLjrP0w2/kdryF33GbTllW3coO5f1leVf74wYMH+2axKQRBEOcN8sefffZZdWBg6NOMWe8q4XkAACAASURBVDelUsYWRVEECCx3mfv9fkeUIbZcpOFC5+vd6VzxdN45guLgoYSVninuMwUFg8yqcvgeNJmyLKs3JyfnH9euXftDCgg+d7Je0OerEEdhYWHj4ODg/2OM1Z4WZenMKnGSIweSR3fyQggeVUuvpVumU7oVLquJ6IQtMeG58lVVnzx58iTaBxIEQSwKoVDo0kgk8hFBEN6NoDf3S+FwnMrv5jgGi2W5lSztqTVvvvYN+Bo37n2YAPAUNjcnfFokySn5ekqOuSjKx4uKwlf29fVRHNEsyXpBnyuYyf785z//W5/P98l4PJ6HkzcYDE41HfAHA06tdWbZjrsda0s4QSHcOLkNt2OaR/M4m5JKpayAx/+1LVc0fH4llSQkCOLCU1xc7DdNs05RlFXRaDRX1/VVpmkGLcsqsCyrmDFWZNt2IWMs3+0G6Qg94D9Ps7qF0y1sBLJxi51b+2dHZKriYbqRTBfWSqVGqqoqXtPR0ZH1Vd0WAhL0swDL/rWvfa3vhRde+KYoim+LRqM5p0dt8tzJUCjkFD8AcFPhJOYBIiVFxWxkZMR5bDM7WVRQ3FixquI3zc3N6d6oBEEQS5T6+vr88fFxXyqVKlJVtdwwjFLDMIoMwwjbtu2fnJwsNgzjGkVRcmDA+P1+AcIM63ymKplAVT1TaWqiKNqq6v18PB6BJ5Q4D0jQzwDE/JJLLiltbW39r1Qq9X8sy1KRIwmxdqxxxpwcS4g0Zqs4cXktYsxWseaE54uKitjw4BDW0icFJnStq697b0tLC7nYCYLIKioqKi7v6ur6JGPs7YiMP92wORt+f9DxarrlXe28vOq8mpq8OBk85wcJ+mlUVFR4NU276NixY99njF0CgXasa9s+pc0pf8xzJ/m6OlxNODn5mjpjTsW3X5aUlHygo6Nj9PwOE0EQxNIFHddQBKukpORNQ0NDD5umKZ9LP3TAg+8YYydSqdTqpbuXSx8S9NOorq6+ZnBw8MFYLFbAe/Xy2WZmxx9Y4E7zFMNw0s+c6HY30hMud/cknTAM4wuWZX196Z8KBEEQc8fv97/LMIxvJZPJnJk+jRtCQJblJw3DuHamvyHODgl6BoWFhe8dHBz8d8bY1IkIVzpOOgR68ChQrJmj7jqe4+vqEHfebQgueMuyWvPz8//22muvfbSpqenU8koEQRBZituD/OeKotyg6/q0GqOqsmMIxeMJ9Cy/lzH2wdOHBUug4XDlhpGRzgMruU77uUCCjjy02lptbGzsw5FI5Au2befA6uZr4ryeMNxHCPoAvOcv0tWQlwlrHa53IEmSbdv2k+Xl5V86efLkk+dyEAiCILKJcDh80cjIyH6sp0+3X5KEtDikwzG7oCDvzoGB0W+f6f2VlZVb+/sH71y3rvazBw4c6M+msZpPSNDTNYe/GY/H/1IQBC/Emrftg7BDqDGD5F3QIN7cEne6DSGNLRBEbjnTVM1OpJI/r6io+GxXV1fbfB4oYuWx0lo/EtkDYpH6+vr+2zCMN4miKOMeCiMJFeBw33RT1BjsINO0Iex2SUnZlu7u7r1nG4VgMPipiYnYB2pra/4yFAr9iQLnXsmKFvSGhgbfoUOHvpNIJN4iSVIuTjQINwSdVz3KzC3Py8tzIjLxHrjanapIuuFUhFNkxTYN/VuXNDR8iiobEQSx0iksLHzj8PDwQ5IkafBuQtQBv8/isWWlm1dZFktWV1fXnzhx4sTZxg1lt5uafvEzSRJeV1ZY9n+1gPLNtra26WvLrjBWtKB7vd77EonErbCE+MkGkYaY4zGC23hTArjc4V53WqO6XYAg8BORcVSBS0ii+Pdvu/nmr9F6OUEQxBS/UhTl9bDScT/lWUM81ZcbR/F4fLC6unrdiRMnpq3Xni709XCzZRmb/P7Af5WXl3zqyJEjQzTeaVasoHu93h2Tk5M3a5rmdBPK7L3Lo9Uxq4SLnQe+FRYWssHBdDVC5JgPDAxgAIcqq6red/LkyV9RwAZBEMTLlJWVva6np+e3ubm5Ai82gwwgeDp5hDvc74Ig7P3c5z63FalvM41fTk5h7fj4cKsoioJlGbuqqqreSY2tVqigI2JSUZQmwzBuZIwpEG9e1Y2XNswUd16bnVeFQ9lXnJj4O1EUjxWFi/6qcnXl/meffXZkphORIAhipSHL8q8Mw3ijKIoiLxvL45AQMxcMBu2JidjPGTMaZxobnu+en59/3fDw8GPpbDe5v7Cw8Jbe3t5nZvr7bGdFWehw1zz44IM7UMo1GAwKCNDI7OHr9t6dOuaYQSKQAylqKBaDkxFuI/dkPFlVVXVrR0fHH7P9JCEIgjhfSktLX9Pf3/+kZVmi201tqo6Hrpu47yYlSfq/hpH68my+Q5Kkb8qyfGcymcRNuz8QCHw5Go1+azafkW2sKEFnjP0vY+y1ubm5Tu11uH6wLg7h5iVcOZnR7VgrHx0dRSqGU5edMbZ3/fr1bz18+PDJbDshCIIg5htN0x5JJpM3CIIgw3ByMoScPuo2rHQzPz/0dgTQzeZ73Xz3ZyVJugSfaRhGdyAQ+HY0Gv3SbD4nm1gRgo7oyF/+8pffn5ycfJeiKBKv8gZrGycVrwDH2/jBnY71czzGa/gJVzsmAYqiPF1VVfWhY8eOHcimE4EgCGKhyMnJeWMsFntIEAQNXtGXG12JsNDtnJzA1kgk8tJsv9+tIf+YLMthN3re1jTtXwsLC7/Y1dU1OdvPW+6sCEFXVfVeXdff4/F4BLjPIeK8UAxcQAjQ4GvlPGAD4Dn8h6C70e47CwoKbqE+vQRBELPmYcbYW3Br5UaU2xNDb2ho8J9PXjkylDwez0eTyeS/oq4Xb/LCGPtebW3tp9ra2sZnvZXLmKwWdFjmv/vd774yPj5+myiKhbC8IegAJxSv/MajLUtKShyXOl83x0ySp1lYlvXiunXrrm1tbZ1YxsebIAjiguDz+d6i6/oDoVDINzQ0NFVKW5bljmQyuVoQBOt8NswtwPQHRVGuxj3dNcQMwzB+WV9f//6Wlpbh8/nc5UhWC3peXt7fjY6OfpFHs6fXbJwgjCnLmzdYKS0tZT09Pc4xdCPYp4rM2LZ9sKGhYcv5zCAJgiCIKX4piuINCJCDIQXx1XX9CcbY9XMZo5KSksv7+vp+W1paGurt7XWWSGOxmG1Z1qPbt2+/+VzS4bKBrBR0lB1MJpO3DA4O/qcgCD7uTudlXXEicXEHPOgN5OfnO1Z6QUEBzzl/ZuPGjW/dv38/tT4lCIKYA0VFRW8YGRl5TJIkwa3/Yciy/B+GYXxsDh/roGnaB3Rd/4ZlWSpc7/h8y7Jsj8fz+JVXXtm4c+fO6Fy/Y6mTdYKO1LTDhw9vOHDgwG6/3y8i8M2NgHREnIs5fuc1hbkbHq52PA+3Dd4nCMITJSUlt3d1dXUv9QNJEASx1HHd4/+jadpbk8mkgGZWgUDgA5FI5Ltz3faGhgalubn5Ma/Xex06YQK3zgjW1J9Zt27dzdleVS6rBJ2L+aFDhx4UBGEt3OvAFWfn90zLnAfGIeodwXBYM8/IM99bU1Pz7uPHj6NjEEEQBDEPuJHpSDcTTdO0Kysrr+ns7JyXojB5eXkbJyYmnpFlOQRDDfd+tx8H3O87Kysr39ne3p613dqyStA3bdrkP3z48G91Xb8aLhcIOqxt3myFF47h1YrSzQGsqfVziH04HDZHRkYGi4uLr+/v76fUNIIgiPnnvxVFeTvuzxUVFavm2Qv6D4IgfEaSJBVGGrQAS6nd3d2w1A/U1dW9KluDm7NK0BljTYIg3JyTk+NUgeN9yrmAc3jvcm7BA15kxrbt3oqKij/r6up6Yf7PYYIgCCI/P/+ykZGRZ23b1hsbG0NNTU2p+RqV4uJif39/f4sgCBU87Ri4mU2oSvfI5Zdf/oFsLNedNYKuKMrXBEH4G9M0vRBqFC7AOgqv1c4D4niddi7qgBea0XV9ZPXq1W9rb29/er5OLoIgCOJUkFL88MMP35dKpWoZYw3zPT41NTWvPn78+FOqqsKtPyXorhselvrPTNO8bb6/90KTFYIeCoXen0gktieTyXKsmfAGKhBqCDiC3XgPXjyHtXO433mNdrdi3FhxcfG7q6qqXty1a1ffhT4wBEEQ2UxJScm20dHRNyUSib893xz0s7Fu3bqCI0eO/ANj7APw2I6Pp+vL4N4PgbcsK6Fp2r9PTk5+JpvGeNkLek1NzWUDAwM/ikajGyDcSFVA9TdeupVb5BDw07up8dc0TdNFUfx0PB7/BrVAJQiCWBxKSko29PX1HVyIb6urq6trb29vlmXZj54dgHd5c1OZbVVVP5tKpf5pIb7/QrCsBX3btm2Bp556qsm27Tci8AFrJHCzYwYGsUYTFhxIiDse84Ix/LG7pgL3y7duv/32T957773pMnIEQRBENvD/Mcb+WVEUAcuw6McBMUedkYGBAexfvLy8/BPd3d3fyYadXdaCrmnaN5LJ5F2o0e4WEXBEGvCyrrxrGqId4W7n1Ynw2BX5x6qrq9/b1tY2mA0HlCAIgkiDjmzPPPPMMdM0y/AYXloeVxUKhRydiMVi1urVq9/Y3t7+u+U+bstW0HNycm4dHx//IWNM5Q1VkG8IYcfaeGYHNV4pDsAtz8VdVdV9tbW17zp06NCCuHwIgiCIC0swGLw9kUj8UNd1AbqA/4ib4k23YOTpuj540UUXvXa5a8GyE3QUjzlw4EBFe3v7Ll3XC3FQ4FofGxs75azhljmscF5MBmKO2Rnc8IIgHCgqKrq7r6/vwQt7uhEEQRALxfbt2+Xt27fvQt/0QCDgdNfkMVUwAGEIukFzL9bW1l63nDu0LTtBd/klY+xNghvlBsHmhWR4T3McKA4PkoNl7h7IiMfj+Vo8Hr97oU4igiAIYmlQXFz8jv7+/vvhdccW8eA4GHl8eVZVVcRQ/bSysvJDbW1tyaWx5bNj2Ql6WVnZ+3p6en4giqIAazulu8KN0LYzIDKB2cxmfp+fxeIxvMPWFM93E3riA7MbKoIgCGK5IgjCflEUN/DGMNAPW7CYaVpMsN21dd0cLcjP/8Lg8OA3l+N+LitBX79+/drDhw//xufz1fA0hKk9OIugYwc9moclkgkmiRKqyPyxpKL8+q6urnT1foIgCCLrKSsre2dPT89PCwoKBHTUxLKsYRosvyDMhgdHnP2XRYWZltlfXlh2e9dg12+W26AsK0FnjP3K4/GgEIHjMoF7PdO1fia4ha6pGkumkmOrK2uuP955/MXldqAIgiCIuaEoyp9kWb6Ka4esSszQTZYfTrfNZrbAVEWF53fPurq1f9Ha2to6t29cXJaFoKMtXnd39zv7+vruxRpIOBxOD/45IIuSUwYWze59Xs/7J+JxRMYTBEEQK4xwONw4Ojr6QCAQECYmJhwPrySLzNQtZySKC0vYwOAAvLmWqqiPrVu/9rY9e/acGnG9hFkWgl5XV1fW2tq6S9O0MljkvJe5s4aeEfx2JnjeuaVb9xu2cStVgiMIYjGwbVuc75KmxNxAP3ZJkg7KslxnGAaOj+Pp5VVGBSaygD/AorEovsjyeLV/mZyc/Nu5fevisSwE3ev1/nsikfgwghkg4nC58+IAM+EeqJOVlZVXd3Z29sz0foIgCCJ7yc3Nfe/Y2NiPEFiN2u6oLlpUVMRgsScmk1OCLgoiAukilRUVje0dy6PozJIX9M2bN7967969j0iSlIeZFCzu4uJiNjQ0NFXCdQbiZWVlH+7p6fnRTG8kCIIgsptLLrkkd8+ePS9KkrQGmoKUZ96oCwKP8rBlJeWst6/XGQjNoz25bt3aG/ft2+ekSS1llrygM8Z+o2na9XCP8BxzlHDlXdNQ8WcabL/f/+O8vLwPUlQ7QRAEAXw+3/Z4PP4F1DLhTbt4S20s6VqmzbweN/BaT9m5eaG/Gx0d/celPnpLWtBLS0vv6O3t/TYvBnAmFEl2Ug9kSXaKxqQM3ZlloYiMaZptdXV1l7a2tk4s9QNBEARBLA6bNm0q2r9/f49gixLqlMiKU/7V+XK3aZfjDea91FVVnSgsLHx9d3f3c4uzhefHkhV0DPihQ4fuNwzj2ul2DTsQzguzkdF01DvS0VHeLxqNJgsLCz8YCoV+tlyr/hAEQRDzT2Njo9rU1PQtRVLfh7V0w9KnhJyLuFN4xrYdyx1i7/F4HkskEm+a/62ZP5asoFdUVPxVV1fX96azzgF2AHmDGHDMrGClJ1NJpqjqA8lk8l3ZEmWK6MxbbrlFPH78uNjAGth3XvyOifkLRe0TFwr3puiUauTnJ35vamrCuXkK7utohWie6fWVCPpSZI4FouKde5ogpHOo0uN6SqQ8Rc7PH2vWrLn6+LH2P2iqJkAznAJkqcmpVtsAnl4IOnTFsizb5/N9KhaLfXX+tmJ+WZKCjj7nL7zwwm8SicSrsFY+HdzlDgryC9jw8DAOgFlRVbn1xIkTe+Z3uBae22+/3bN7d0c+PDzxeCovORkrM5JGQLf0sJ40C0SJ5UaiUS0UCEiTqaQV8Pt6BSaNK5o0IgjycDDoG7YsazgUCo1qmhYJh8MTO3bsMFaa+J9+syTOD4g2zh+IDH4/cSIWtu2B0uHhsQqvVy2IxZJhy7I8uq4HmWGGDGYFbMP2WpalmDazA16tx2BSVNOkSI7XN6oza1gQxIHi4vwhxjxjTz/9284zCVe20NjYGGCMpZqamlIQ461bt4ZFUasYHx+uYkwpSCQm8mRZ9kSj0UAikcjx+XyBaDTqQ9EyaLuqqicZYzG4fBFxHQgERizL6g2FQv2yLI8+//zz/e74YS34LPUyiTOBe8SDTT8/qMhKHaxyy7aYzdJ6w9PYuNsdgdijo6NMTxnxcH5Vw/DwiZalOKpLUtCrqqo+0tHR8XXnDLWnP0clQXQOBFIMnM5qzLZlRfmGrusfX4oDznn3u9/t7+zsLBzoGnr1WHR842hk5CpmWBcblhEyTMM5LqIgWpZtiQITnBMLsQIA8QKWZZm2beOeqeI5FEIwLVMQBVHAeEiihAWhpCzJe3Lygvvzc/Of8Pg9L+3evRs3iFOsq2xgw+oNl2M/TM2UvN5QRNdTPkVhccMwpMz9g6U43ePTkWXZGXT+d/ymicf4L8uyqeu6TxCE5P79+/dnw1iCa6+9tnx8fLwomUxuHh+Prh0bi1waiYzVMsZquNdMkiTdNE2Mb+aY2jhX3SZItq7rp4w/rB2n5KZh4M6Z9Pm8BwRBGszPzzvk9/uag8FgS25ubu/jjz8+uJwF6vrrry8bHR0tjkTil09ORlfH49GNsdhkja7rawRBkN3WnbplGRDuqTRcURQtWIJwA4uiaBtG+nWMqXN+m2nnhyRJhmmacVlWWn0+b5+mefdrmuelcDh0BGL/9NNPDy3W+OE6KC8vvyoQCMTGxsZsy7LQ5ATpxqZpmrKqqq/QmVQq5dzYk8lXvpYWVFtIpQQ7FBLN4eFhQ1HyFUXBtS0FdF0f6ezsPDYf11pBuOCTY2ORf5Fl2bHSVU1J1zYRoSSMiaKQ1hXX54Q8dVGSd5hm6h3z8f3zzZIT9MbGRm9TU9MeRVHW8SCF6fComnMA4G7HyW5a5sH61avffLi93RGupQJO+ssuu2zd0ND4leOjQ28Yi0yst5lZihgMj+YJJpIJuCPTJ7Oivrx0ICtMN3SnDj3WdHDScSDsHKdFrGU6ExsI+mnY+HvcKGxm9ymS/Mc1q9c8HtSCL17yqksOffe7301HgyxT6urqtnZ39jwcj8dzbWZ73dr9MYEJfvdSPOt5bp8qRmdihmvEGWtbUZQXb7311mvuvfde52a2HLn66qvXDA1F3jg83PfWeHzyosnJRAljTNc0TbZtW8b1iPMMQafwnOExxJm3KD7j4AkC8/v9zkvRaNQ5r2H9IDsFf+t64CxN02LJZNIDrWKMHaisrPhfny/3j62t+5z2xqgW2dzcvKTP0xtuuGFNe3vXDYODA28dGxtbb5o6xi+haZoiSZI61X+CMWdMnPuVqTvjyC1CgOscY8OLZvGlROAE/mYU14IDU5ZlyzAMBP568eeaprZomvp4KBR+qrPzxMO492zdulVeqPHLzS2+aWxs8DuCIBQ7F4NtO9vpGmOQwrNeQ1Mh5mfBtm1dkiTJtm38N2VZTtm29a3Nmzd9obm5OT7X66yubtPqI60H9kui5Mf90x/wOe21cQ91xD2pM0WVnUpyOGbJyRSOm50bCr13eGz4vrl+/3yz5AQdke2Dg4PfNgzDKSKDNYzpwA7AgnXWOGwrXpCf/+nB4eH/mO+Bmi3uRVSi67o52D/4V339/bf7ff61sXjMliXZNkxDwnY7F4DbWQZijAsbs3G3M5yDW1vY+Z2/BxdLprjjs/A5/DN5hTy8DxOCYCDo/I4KSJqqYRaN521Zkf5YVFT0ve7u7iV3cp4LcGMGPcGvxZLxu3AWYL8zvTozLdnAyTYdOB7TYdum8x2maVrV1dVvOnHixOPnst1LAUyeh4eHw4ODw287duz4O+Lx2BZFUTSIN647XH8g8xrkEcAAr0OQ+A0c1yA/7/i6Y6aIAUwGeKopPouxKVF3xpGLvJ0+iBCDWHFxya9Dofz7LrpozbMPPfTQkinDycevr6/vz48fb397IpFswC56vV4Z+5i5PwBjw8/Hl6tdvizcGBsnBiiZdM47/M77VqD4CTh9QoTxw2fx48LvmRg/QRBw84wpivpoeXnJffX19c8/9thj4/N97nk8/tsMQ/8x7tnYPt5f3F13nvPX8X1yJz2Yg3/Xto075yM+atu22z0v/unBH8VS8XfAu4na7phowRsKQcfxQq33vNw8x+WO5i3OJNawD9euX3PD4cOHl5ThuKQEPX0OCi/m5ORciobzmbPWs8EFHQddN/Snrtm27Y07d+684FbShg0bNo+Pjd/Y1d39CVEQc3EtwtnrNIsRGLNM02npiosXJw+axzgz7wyBgaWJkwuC7NwQRMmxwp0bo6pNWUi8fCFmldyi5+LPlyO41Z5pweMzRFmwEomEYFlWV2lp6bdXrVr1s+eee+7EnK/CRUQVtQ6v31s5PjHuTH5433ucP7ghTsdMgj4TWLbkN1S/3//D66+//o7lEPS1adOmmzo7O/8yEpm40bIsTJ7h4nXOQZxPuJ5wM4MI4Tl+LXLhQDEOWJZ8//HeMy2PnW7Nc0F7eWLgxIFNrVXymze3/PETkyW4oC3LOlJcXNxUWlr14z17nj8607FZSLZs2eKM39DQyI24tjVNExwhcA0Q7jEE2Gfef5uvyfJiJoxZp0xy+Ot8fILBoDMpwmdnWL3p69tZvnjZ6MmcbE2VMk1byja+L5lMtvv9/vuLi2vvPXbspbb5Gp+CgoK/GBoa+Zl7jKb2gR/D6ZhpSZWPW2YzLo/H+4NEIvb++dh+aE5VSfktXf1998mSrOhmyj1nDaYbZrrOO1aH7HQ6G8QdKLJiiKJ0dyIV/9J8bMd8saQEvbay9qZjnccfVBVV0U3DOTF0I6NwjCCwl8M+0msc2AFXDO3yyoq3dXZ2Pjxfg3M+bN26dcvhw4c/lkqlbsba6inuJmws7A7+cwmAMeY3b13XsXXjOTk5D5WUlHz/yJEjf1gCmzgtNTU1bz5+/Pj9jLEgt+7ctEXnZug0YFhAMtzGuOH2Xnrppeubm5sjC/iVc+LKK6981ZEjRz4/MjLyBkVRDF3Xp5Z6zo+0IJ8/52bB8XV5wzCwRn+irKzsR2VlZd+tqqoaRcDZ+X//7HjVq1515eHDh784MjLyeixH4PYzu084nYUdPz4JyBw/xtixoqKi71500UXf27lz55w9HuFw4dtHR0ceEARB5ALtxPw4k5tzO75nAwYQ4IaOImtMUpT74/GJ2+bDQgcI9nywqWnQ5/XlxCfjU4bTTBGGsMvqC9ZXHB46nC4ptwRYUoLuk7UmJstvh1Ulyu4JwTM4hPSmckF3TxxLkWTRKSwjyH+49Zrbrr9354VZw9xUW3tlW0/Ppyfj8bfCdWPallMneKqS3dlGeqazZoEJhUKO6MGK4G6+ZDIJV0l7IBB4YvXq1Z9YyiUPQ6HQtyKRyN/AOsBQYT+w1hWLxc7JwzMfYOYOYce4rauufl9re/uPFysg6VzZsmXLNSdPnvxMJBJ5PQLZzsX7dW4srCDhGspcM+beKFdMB2oqa79aXr32J88889jguW3v+dHQ0PDqtra2z0ej0etN0xQkKR2wO0MSzjmwsOOXabVzUXevE92yrKGCgqKvvva11/xnU1NT2qd/HiymoMuSymRV/e94fAKNtuY2W8hAldQdupl6K1Y48TSWKKFDKFQ2DbbE2PdNxu44j2FbEJaMoG/evHXLvr0vPQ9vBvY0Ny+9ZuEI+imWeRo+E8wJBBFsY5eWFL+ju6+vaUFGaQYKcws/PzYx+lHDNAoEUZxyG55x/fb0Eb/Agg742icvgchL69q2HVMUZV9FRcUH2tvb9800DovNtm3bcnfu3HlIFMXSzPU6iAAuxtNdlOfKbBwoaM0LlygXyFAg8PtINPq6c/2uheaOO+7wPfLII1/o6+v7EGKxsKYFDwYmcec7PosJxjUdPJZ2dWaW6XSWBpgyaIvW6Krq2tuOHDm4ayG2rbJy1T2dnZ13IlobKcmOwSHiHpT+v5SBqxoTIj5+HO5ZEgRp2Lbt7nXrat9/5MiR8xq/RRd0Sbo/nozPm4UOKoqKbuseGPixR/MIWErC0iaCjuEpng5JEPXqmtWXHjt27MBSOA+WjKAHfLn/HouPfxiBTc7aZyqZvlkm0vXwMzMsM9dd3B146u2Njdct5tolom4Nwyg62tLyDcO0rtMNPRfr14KUriqEmw22/xUu3yUo6Ljosb0IvOFRzDw4B489Ho/p8/k+c9111319Mcd4Jqqqqm7r6Oj4scfjXoSmmVkEwvnzmdbo5goXcqxR4n9kbMyqq69f39LScmSunz0XcH7mMDVRIQAAIABJREFU5OTUPPnkk/8pSdJVpml6M621dEAamyp3uZSBZYnt5ZH1OKZ4zlmSSxlOXIgkSG1Vqyrvbmtv+8l87Msdd9yhtLS0VD/77As/sCzzYtM089KfaznHGYIej1/wUJ1zggfSYdx4jAQ//qYJL4MT/3C0oqLys11dJ39+Th+awWIJOgJ+FUlhoiT9LJ6Mv3s+LfT169evajl8+AVZkoumqsMZ+oz2Fm7nImPfWypW+pIQ9IaamtCe9o5DgiCU8SxhBNs4azBpT6oj6GcQcueevXbdujcfOXLksdmeiOcLIqsbGhpqdu/ev0Nk5kbLtlBI/uXUOdeamBY+8hd4ho9JBxdyXPgvz9zTEctuyUNYvLYsy/971VVXvfPpp58ens+L6XzRZO2RlJm6kbtlcWPiosUbLcwU5T5f8Oh627LsVVVVf3uio+Of5+uzZ0tDQ4PPsqyrDhw48BXTNBsQ9IbP4KUsMSZOEKlbu3opw/PWnbTM06x0POf3BpxlLdeiMkKhnC9ddsVlX5tLNHdDwx0+Udx39a5dL35ZkoTNpmlqfAIBQYcozpSut1TgXhju2RDSydVTgWt+v+Ph5JOkqMej3lNfX/9Ps4kDWUxBlyQFt86fJo3ke+bzHoQiM7/4xS8eNg3jzY7euFlDM92ekTadTCVT4fz8zcPDwxe82MySEPR169bdcOzo8V8h4hBRx+m1ngxBd3xbL18iTtEK97HN7JdsxpAusmiUlZXd1NPTB0sg6NVUlkgmGHxx4XDYaesKgcHNB0FZzrLBmVgigp5ptWG7AV/35+5kbiHpup5ETmh9ff26ffv2tS/agJ+Burq6uiOtR19igu3LjKaFUC3mDRfr9ZgQwWqD693n8TJZlJ97w5vfeO1c1iXnwurVqz/c3t7+WcZYGc5B3LB58CPGBoKOawjxE2Njc46JWlBOd7kDnLM4ztgHI2U6jxHMBBcpcoRzcnMf2rp1y/ueeOKJ8wpOXLu27iNHjx79DGMMdSKEUCiEAjmOqx2CzlOzznptLyHO5HLnWQyYEKG+T1lZGevp6XG2WpbluGFYv66rW/PR1tbW9JMzkA2CDu0pLiz85PDwyD9LkiTwTBnzlTU9TsGreZwiObIi/0sylcI5c0FZEoJeHC7+2cDI4F/g4vH60jfGzGCtTDLzzuExLCsu/2hnX+e3FmsUg8HgVycmJj7u8ficg24Yqam8SwgLt9Rw0SwHCwjbiRsiz5HlAUjuxT0l+Hx/JEmKS5J0sK6u7oP79+9vXqxxP52ykrIv9Pb1bbdZ2vrEZIQvdWAyldkpaSHhgY883So/3SjIuHjjxuv279//9EJ+95morKz8QGdn5+cZY+V8QpYZnImJB7YVIr9c4ALEvUeZ1xUqdyG9E+B6dNOOUOjnwWg0ests99Edv79jTKxAPjWPNZCk9PWMCYZT20FPd3WcoX3zkgHbyr0ymXUFBCGd5YLrJV0zwEmjQybBI/F4/M/OZQcWWtAz63QgTc9i7CdG2kKfyYCeFUg1PnTw4HNej9fj1BFwSsFOD24+SD+OxWN9q/KrX3viApeEveCCDvfgS827RyRR0viaOS/IcKaiMpmCLghC/KKLNxQtRhQ2aqw//PDDd0UikS9aluXXNK9b7crpretEVfO1vXT0a3qtbaY86KUIt34yc1+xP6hnDA8EnldV9U/r16+/Ze/evd0XYh8EJj/n9WhXTCbjzngj0IsfAz4Zmako0XwAseGTCVhDsWgUufB2MBjY/trrrvvKYqZUXXnlldUvvfTSk6lUqpqn7HER5K5rLnw4xtjehU7rmzWnRSRCQHEcuVcBZKZGufM55zn8ywkFWSQSwf5Gy8vLt3d2dp5zI41t27ZVP/fcc/+bSCRW5+TkMtTCAOmccn0qEwSTXnhmIIALHaMxVzKzGTJTLEG6nKzo7B/uU7hfoVASxExRlMFAIPDV0dHRf5ppGxZT0DEBsQVhQQQdCIydkCV5FTKnUPfDcOt+nA1ZlJx7T2Q8Ygf8wa9MxCY+N9N4LSQXVNBra2u1VCz2ns7e3q+h9J6TkmKnXVoQDT4D5kUanIsaJ2C6HGrCo2n3TCYnP72QA8Spq6u7trW19XeiKIrOjTsWW1Yz9LnC1+D4DUwUxUlZlluuu+66bXNZrzwfNm5s2Hhg/+6XREGUTXv6KNTFgN8oncppqLAmySgW1HlpQ8OahSq3eSY8Hs9TiUTi/+Tm5gpwpc/nhDLT+4Rrk1eHy/zJvRSZuc+8OA3vWoVr2RWMxfBgWRs2bHjNwYMH/zjTeeA283lCVdVrEM0OD8b0qX083Wz6zCkel8JTxjKLz3AvEh+vzKI63Kjhr/G4B178Z5G8A9ZFF1207dChQ89MN36FhSW3DA4O/DdSR52JlRu0mI55mFtmGfLQnQwW1/WNtLWFstCdSQ6Tfqio8m2oz+AYZjPY6OglwoPoLMsaMW2rcD7X9mfLBRV0EAgE/jsWjd6iKqpTaYmvocOlxU94fqLDEsaMfDIxiWIyJ+vWrrtl78G9L8x2p2cL1oxbW1ufDgQCBYlEAjWFp6zwpT5DnytOdSTDeMV+ujeqmKZpv12/fv37ZhNEM1c0xf91QbA+kkwlBd4d6UKBceBFNJzqacl0wJRlWbGq6lXvPH78+K8W4wIvKyu7u6en5zPBYFDDZDMzQHAu8OjyzEpwmSLF2xbzOu88eIzXIefwcqAgMxBzoVEU5ZmGhob3zFT9MBQK/b/JycmP+Xw+LyZDvELZ2Tk3QT+9fLUT/5PxH/c8nDf4iTHLFH5+b8ExwHu4N4UXTuJiv5DIsvz85s2bb21ubj5rM5RsEvSivKK/GRodxBKuU8Z2pjV0LujwDqGkd9CX81cjEyM/WshjMh0XVNC3b98u3719ex9jLF9LlyZ0thUncEpPIT2B2Wa6lCCCNxzXZjJdHtUrex6OG+e2xjMXGhoaCo4fP/6LWGzy1emblOWs7yMQyqnzy/MUZ1psOY0lEhM3I5mFPfiNiEeOu8Jl5+fnf/ld73rXl+65556Msn4LAzIMZFHpsWyrGMUfxqPnFfc0b/D1XQiaI1TOOmQ6SjYUCP10NDp227x92Vm45JJLLtuzZ8/vZVkOZq7pL8ZyT6aVCdHhNcdxbvBa8DxCnU8yAMaLFwBaSLxeL4okfTMej3/kbN+D6o67d+/9g2mavpycgONqxzUO1/0rOb0QzPQWKI9NyfBs8XK2znOZXoDM5QVeC5+7w/kyGDd0uMdkEY4xysZ+J5FIfPBs45dNgr5+/fq1LYcPt2iqJqJXxky3dQg6r7TpxO4o8lO6rm9byHN6SQo6xPyBBx64uuXw4Z2SKAmSIjuCzoO0IOgK1s9S6Y5OyJd0LAM43UVxoqyg4GMn+3t+uJADB/HIzc29Z3Iy+cFUKuVocCgUdNztPKp5qrPZTEd+mQp6ZnAZ7/rErbGMNTlr06ZNV+/btw+FgRaUDfUb3nCo5fCvg4GgOBGdmOpffKE4m6C7NfP7r9m2rX4+ymtORygUeiASiTTC5cmj/HHccHzmIzCTpwA6E5WM1EaeRsaD7wDey93q/Nzh4gQw4cDa82JYlxkYGzduLNq/f/8ZU04CgdD90ejEO1DPHkGup09ETmV2gg6414IXbAKZ6ZSnL43wsTnTkmOm52AxAj/z0gW+rPr6+qKWlpbhM52H4XC4cWRk7IFscLk75zhj6GWxCr/PdFtHVgs8xm6HR+fQrqquvvrEiRMLfi88ExfUQs/Ly7tnbGzsTqxLY+Nwg+C5ssgrTQt62iWVnEwXcYB1rojKoY11F7+u+XDzgtXQhZivWrXq/V1dPd9G4RJMNkpLS1lXV4ezHeXlpay7u/eVjQFnOAOWYF2ZaeE3F25x8QhffvPmLmfLsh41DOOm6T9t7nhV708TqSQyIkTEUqQya/1fAPj+c9dpwu2Khf4CyVTSXrOq9v1tJ9sWbOIJD9K+fft6JUmSefT6fK6dZ+auZwajcZHX9XRGAV+GylxTx3t4vAl/P8YLz/EiMbq+sE4dEauikmSXlpd84Nprr/3x6e1tr7jiiuIXX3ypy+PxoEUsi8ejM7jbZyfofALEA2UdwXCb36QnXOkKeFzguUHDJ818spQZp8HTYvHeycl04a2FAlHluO0WFxf+TWFh4c/OFICcbYLu03wPpvTkn5uWOWMYvVNYxm1ZzRtjyZLyLd3U71yoYzIdF1TQFUVpNgzjUueMcQMpcOI6a7ZoBYo2dVON5RnLCeY4ZV69Hs/90cnorQs5YA1OQNPu/2WMVWUG+SBTAvnmAwMDTFHQPMbdQE6WCXrmjZjfeDJv7G7Eu9M0Y82aNY1Hjx6ddaWpc2XTpk1F+/cdOCQwIZ+vNV5oQedMCbuRrlzmLBulu+c9YTN2/bnu42xZu3bt7UePHv2hoihOyUqIJUQYru+FjvJPW97pdpNuPQPuf0bak8gteFVVTcMwZC5afMKRFqmFDWqUhHS+umnZu2xmXH76+G7cuPH2/fsP/hDWeTq4KW1YpHsboKbB6ds3O0FPt5hNu9fB6d4OXgsewu10XnQPGowcXhAItg5ma/xzeFZFejznFnQ2Eyjkks52kZ63bf3KM73/TIL+8n6fdn+cJYsdFOfkoxcXf2JwYOBf3J4c024xXO5TWU4v3/z76gsKLj08NLRgBufZWDRBd1ujTsndxo0baw4cONBi2/ZUtyfnJEDuH6LZIebojyzIzsWgpItGMGZbdkVp2c0ne7t+MctzY1bk5hZ8cWxs7IuhnJAAF7thpttKIh81faNCD2KZpfSz3JBOE/Yl2ptlRvi6ORdzwJ/DceHtMS3LsgzD2HXXXXddsxBr6fCY1FTWvK+7r+d7uqE7wwk3F9LWLiSZkz3nBgtRECB0TttKbFrs4vUbr9h7aO/B+d5OpHy2tLQ8ZJrmaxOJhIxJDtZ+R0ZG5u2rsB9ciDLLr7qW5GQqZai2LR3xeJTOQCCn3zSTfV5v6KSqKkOCYJkTkej6aDxWLkniqlhsskYUWLUoirjmBVWTHYt4TswQjAJBd1ParE2bN27au/fl44AuW48+8utHGRNel0jGRexTMJguFJSuaXCmWu1c0PFzZkHNjPzH+GV6uARBSAiCpFmWeFSWxc7cYKjPEsxeny94UlVl1Fg3h4dH6phhlpmWvSqWSKxRFbnatm0VZUkDAR+LRue9vfkpeL3p8cANr75+Xf2ZShqHw+G3j4yM7ch0uS9XQQe15eVXnuzr/xM061zS1nhLa8TNQNxR3Mjr8b1zJDLywJzO7fNg0QT9dOrr69/Q0tKCcq3ONnDXFB8c1S0UggsSN6pUMum4Mc2UPqQzo/A89vWcufjii4sPHWx7UdOUCqyP8OpQafdjuufx1MV+jkp9jm+bDkcdeJruaem6/KUFgwsUdxdCvDJL3LrreXZ1dfU78/PzH21ubp5Xpb3pppuCjz7y6/tlSXRKM+L70kErC2uhnInMY4lloVOKjMDT5Patd3/aFeXld153/fX3nu7unSsNDQ2lzc3NXTD8uMcC52Y6vzjt9Zpr6VsEamVGsLvR7rYoivt9vuCB1atrviMIZsu+ffsG3O9EdLBzrmIShgj/xsZG74YNG/Tt27cba9euf017+/GPG4Z5k6rKYiq1sPXQEXWTl5uHinh2UWHhj/oG+/6Kj/u1115b/sxTfzqumymViy2u73TKGCz1M7nbZmeh86A4HsTmjiXG70AgkNNcXV3zQ8aMVj5+Z+Kuu+7S8vPzzfT4rX1Ne3v7xw2D3aQokrjQSxbIU3eyN3TdDAb9/zU2NjY1fpxwOHzzyMhY0ysFXZ9zFtBiW+gA19VLzc0nEZ890xo6LHSQjvMyeREcOxAMfn/dunUfm+/74ExcMEHPCeR8Ix6P3WVY5rTboKZzzh2rhzGW0ryeH8Tj8QVdn1hbvfbTbSeOfQWpdEk9Hdm+UMBliVlduoPTy0FMmqImU3oKrfyOBnz+g8Gc0F6f19MliuKwR/MMp+JxyVTkcDIZL7BT1qbevu7LLMYukSRJMUxDUBXVCSyUlXS+b+ZanBM4paeYBI/I2TwM5wgP3OERy6Iodm3ZsqVuvk/k+vr6/NaWIz2yIqm4SfLxmqtg8RsWLkbHKhNdF1o0yjxeL0u4a5SZJ2nmLR1nxnQXPS54y7aee3tj4zXzWWQGYllRUfHR7u5uFE5ZsOvYKeThemLc/HFbEMQdmzdf/LFdu3YhQ2XWwPJZvXr1LSdOnPgYY+wKn88joNEJRBRODu7qPrOFPANnCFLJC+Wyscg4k5m0S2f6lNt9XXntx492H/8qrza4EGANH67YgD/AorGok9qEbmGV1ZUfPXLkyND5fCfGr6amprG9vf0TjLHLc3ICwvh4NL0EqKPo05mWCs4Pfn279w90Y3vFskV+btHbhseGsNTmzOW4V4fHVZwX7nGE1etODp2fMPCYKC5YYRmwbdu2wFM7d+6GsX76tp9+rWcGd6aXktKeXNu2J6qqNqzq6DhzIOZCsWA3gpkQmPxrgdk3WGz6NRbM0HBBwDrXdd2uqKpsPHly9h2BzhUEybzwfPPDArOvcIRvgYOufL6A49JCnq6bJpNALWFRYP950YaLflBWVtaZWbjl9KULANfhjh079PXr14cjkcifj49EPhRPxjfhAgsEg47Vxr+DV79SPZrj9ZhWjc4B7lrja8i6ricqKyvf2tnZ+dtz+PNzZlXl6s93dJ7cjoQI7hnIrEN/vmCNMDMmQDeM9OciJ9gpFIMJ3cuKycWce0hmEnT3/B1fV1X1ptaOjhkLnJwrEPSSkrIv9/f3f2aqXNqCILKioiInZkSSJCMnJ/i1kpLi/zh8+DAsmDlxxRVXVLz00gu/Nwz7/2fvPcDjqM718TN1q7Rqq16sYkvGtiiCSwktpAIhEMBOSIAQctOTmx5SLvdCbspNr6TfhH+AUAwJ6SEJwRcIEGLjbtmyerNWq76rbdP+zzszRxqtJe1KsyOX332fx8hY0uzMmXO+/r3fBmQnjBByjLjdoi4Y6dflcFzEfYmqUw/vJik5NSBrSh2NIDSU1t/TM9r3HicVOiIEJcUlZGx8DMpcEUXhG7Xrar+bi/Vrbm6u7Og48jTDkEasEeWMAGhNEi26ywU4jhu98847qxApsF5vrRU6x7L3m8NZMjnQqwLk6e9+97s/a4p6GaKAViz2gTStYhg/c/wpcllZ8OZQKLSmYff07b8mQMvaZ+/6r6Ma0dZlCpnCw6GCG+G7xvVNBUeOHIk4daMtDZve3NnbcT8qHPWD4aB3boAlBQUFZGZqGoaLJoiuBxsa6u7esmVL12pGlULht7a2FvR2d79tdjb2HyrRArRthnJRYwOiLiAXChFIa1vS/H7/t2ZmZj6cy3fEEPaI3+ffEJmdWdAaZRc8K+hpHhxU2hKkp384Tmd9S4/O0ANjpRVZTqqAGlLTNM3n931zJhKBR5UTQKHn5eU9EI3G3uikQvf79UJU/Z4Zhhk555yzztm1K3fdJVVVVduGhoa+4vF4amF00r7sdJrSpZBJoYNnW4/mKDoBUGTDpuYmGt4ucgX+MJmMXOnkGS/ILwQtqHHSGXbonHPPPne1kY3FEAwGt83MzHxV07QaK5lPtuuXCTgTiMyYfBRyTU1NsLe3d8FEn+KC4uvGpyZ/uRYeOs4ryzCOKnSgpKTk++NjY0gvzNV4GfrgeFC5YchTo1PLKBbmH00mk1szrXEucUIUem1tbcNA/2An+s9lVVr2eWhbgD4jPZl4RiPk0lwugBVtDW2BztHOR2Px+CtBGLMWbVHghNcrW1WNra2oue6t73zrH9Mt4NUARtNjjz22cf/+/Y9gQBo2HRXM4PnG4cfHZjXqNQvQdiR9lKWi/HPr1q0XrsYgWQytredu3r/vpb0gewDVK+6bGhF2mfrgQdG2E1q3ofPw6+F2o37CCqtCz+SdA2bIHa2WHUkl1ZLLgRI8Lzwjy8rFTqaE3G4jHYT1ZlmyfTUDTzLB6/XeE4vF3uNyufT2UFpPQ0O3y2Fu6qKeklMJHb9MAWIqndCGYKiHql7YdtFFz+56Vu8RLvIUPjsZn36Zkwod410xCc7r8RKe4x6ejk6j5TKn8Hq934nFYu9DpwNldaQkNZnW0BoeXwyUIdAMI6sNDQ0bu7u7O6w/ezoq9PLy8veMjoTu0dJ2VDYKnfIuKIoyUV1duX5gYGBqLdgigROi0DF+dHQk/LjR57d8fhqN+xAo8F7zA4FPTk9POzJnGlzOR44ceVX7wcO/0yl9Mb1JQfucc/lzQ+DzmqqpWm1VzSv7hvqeyulJJwTMR5s7OzvvlSSpDRXQesU+DSvnYB62lUjEgkRra+t5+/btO2D3eRBxCOQHvjobjX0Y1VbUAMxVdAEKPVgS1CKRCAMjh+GMtsk5Ag/GfP9LdC1kivlZDpjW0Nh4VVdX15/srsk82KNGns+5PYo+ZOybWCwm+/2BH1xxxSWf2r59u83S9IVoaWl59eHDHb9yuVxe7EkoEXiEUCKZmNDmPXRadb4QUGyAmxPIbHxWa1zXdFNHb4ceBnUR8VCKyBudPOPYX4F8nVlSyS8IfKe2tvozua4vqa/f+KqeniOPi6LoxZpRjxpnkzL3LY3Me4cO+oFSguweGhr6/YlQ6Hpaj+HXxEM/55xzrtj90kt/0UOoFix23qksMgpIjRbF+SLhhit6ezt3LPMCcooTotDLghWfGhsLf94qoJcCbhCeMrzY5o0tZx86dOiQU9ZOaWHpPeHJsfeg/xAMcGvRFgWFXllZcXtxsPjxPXv2ODKcurGx8aKuri4MWGCpgIPyyoVStLKBGb27oj4fuL6+/gM9PT332N2tra2tvv37DsA7b0Q+C+N1IaRotX06Z/hKgL3FEU5pblr/15noTM3gyMgZOjkEojNmH7ldhY52S70PWlE00e26Px6P37qSe1wKTU0fcHV23oM+10InFTrk2XzrFfe0pkmX5eL+rdiyZUvh/v0HuwkhBfTfaQSGVuwvKR80Q95SQWt46PNKSjWHPKFexCO4tHXV9R8/1HPoa1deeWX+X/74lxGFqB6nFTolHCGE/V+NyDmnBW1oaAh0d/f2CoJQAIPIWlFPWe+WXL+0NHR6xIsWnZrDYrS8vLzjnKq1yqFbFPoDSTl5Sy6jXelobW6tP9zV3inJ0rIK3VoUR0PugEm2pPp8vi9FItNrNoHthCh0gRO+xzDsu2VZZjIVxVGBKMnSQFV1dfPg4KDeFJlrwBNkGeGfeX5fGyhFPSaln5OHHXKIIfyfNSK/NtfPkw6fz/fJVCr1BTwnpQe1XyGOimRR39TwCiy0lBrP84/Lsny93efatGnTNYcOtoNzgEMbGC9yc5z/GFJhZ/wnNj9P+Hjz5pZrpah0xtHezq8zDMPCmENBnM7xQT30dBgaBP9d9gzRb5pCfeKss8/esnv37mG762IqwbARTcrsZa0WwWAZCYfD+jsGQUxVVcUFtbVth3fsyJ2X3tbWJuzf3/6cpiln4pWA5IWy3mVOqUDeHpdJX6DU9fxvMgnVH6mrXPeN7uHuuy5puiT4QucL/TJR3E6e8ZKiIFrm9OWHI1JdUXWh6NvSfuTIb3JWB4R6Cp8v8GIsFj3L4/HoRaNYP2O+eSZk5KJXFUVhBUGQJElKiqL4pWuvvfbL1o6N01Ghb62u9jw2ODSsEW3OyKQH3grq0FDDE62O9O/GpEH2hYsvftnLd+zY4Wx/pok1V+gIbT/xxBP3Rmaib+E5npEUo4p4KfiN4fHE4/HujMVj5y37wzbQ1NSU39PVO6pqqguXoVa1k4cdUqexsbH5lltu6c1F3nw5mNXxh1iWbcFGW3r4xOpAlTltc2FZNrR58+ZGu7PqfaLvXkmV3yzJkoBOh0QqnjMOa70+g7AzClEDGxs2ru/sPrpbJqoPK4B2P50xbKnxrJli7SZQFIeiO9NA1NbV11/b09Pz29Wt8jzq6zeX9fa2D0OYO6nQ0YUBxVBcXEzGx8fx1O1nndV69fr160Pbt2/PmXHt8Xg+lEql0FmSz/MCL4rupKJIAiFaepHN/MorHKOPQTehmpqdhaHFyfh3TVGIrCgpBi3CfpcnUphXuKNnpOfnqLDf+Y9/9qmEsE6ecdq2VhosJaNhvVW/o2Vj86slSRrp7OzMGe+tx+P7cDyeOB+NLT6fj9c0NU4IwyFxaNk2x3VdLbYPEU0yjVVNluWkqqoFLMuOKIriysvLeyQSifzG+nvF/tLrx6NjjzpdFLeWHjrAEqZPI1qt9VnTF5BGr+b5GnTDV5cdZn1SsqmpobSzs9NZBqATpdABl+BqV1WtxRiXunzbGgSiqqqaKPA/SkjSuxfbgLnA+ob1N3R2d213u9w6hSad45zJ4MgWVrpGc5SkXg0ejUZzWg2+FBC6Hh8fv2F4aOheHDwUgul973Ra3CpBq2mt1clm/2lqw4YNF3d0dKB3dVVobm7O6zhyFAM1DKaUVXQd0HY6eNtYd3j0yAmifU9ATzARHo3JsTcifCcQ9rDGcs0IncWTpkG9lIc+f0PLwuNyo5hT/xmzF/lpjRDbYevLL7+8YMeOpzEsY1GFnqnYKXsYEUfLtC/ItMFAIO+75eXl3891xwkMfnweLai87bbb3Pv371foXHkUe47fP859++i3pWxSb+acc13IoB2JepZYv2d2PD2+lELP1foh56tHfFhzWI6sr99Qfl7gnrMbz/zBjj07cppmMww8IxqAr1ivgwcPanQ98f1t27aBoF3JVdFqcXHp9ePjhkKHcTnvrdqgfV0s6IJ9aFa5p5TULdnv4ZUDUaND+w4+mZASl1h/O7Mdv5B4iGGYZHl5+TsuvviiX+RqvZfDmnvoAEu4YYZjKjQFtvHyLx03yBBGLS4IfCg8NfWdZZ/GBooLy74zOTn2fn1Uq2LwceMg2rXeqQVnzWuZAlKprKy8vL+//1kbt70Kp2haAAAgAElEQVQiNDU1NXZ1du7werzVUHAgl8m8QZcHzSHRfLylXQZ59Nf09PSgsGRVaGxsfEd3V88PrWHtlb4P6/hKGkXAO8G/S8mUVllddfPAwMCDUOg1FTVfGDw29Emvx8skUkn955KpDE5ohgXM9+cRpHAg0E1Bm6ypq93Q3d1tTPlZJUB+8eyzz4VlWXYv5qHnSiHxvOFt0KErVFibnOMTbrf4P8XFxb8ZGhp6YZWPckIAA/fAvvawShTPUhEOa350taBtkQD2AN2PsqITXExqRH2wqanp12efffazayHwnUAgUHTD9PTU9tNJocPwcQvCb1OyfJV1zTLLy+MUuhoIBL4wNTVxpxNrn441V+im1xVC2y9YgDIpdDDFybKslFdWnDc8PAz2HkfAEmEvz7OtRphV1UPuQC6IZegoS4MylqHFY3tSqdTZjjzMMmAI+a3AC6/TZ/eCUldevm0wE6wK3fp8cKZLS0tvHR0dvT/TNZYCQ/gnCVGvWHigVpYvNgwN9JODe99gzQPgpUcjEemKlldU/LX9rxPbtm0TDh8+3HzoQPseVVNZPTkOxqelDM7MJ1uHnqfneN3QgQGFG6mtrHv/2975th/ZSbOADvQ737kHhWSVTip0tK0hWqV3VpqTRGhbjjHfnNNSqZQUCAT64/H4i16v908VFRVP54I4xUmgqLCr8/tdGlGrnExZuAS3/hhGZ6qxd7Ef9H+D48AxmqIoMTAsMgyzMy8v74l169Y9s379+oFHHnlEdbLwK1eAQp+Zmd6OtN4aeegPpJTUzbm6/6WQn59/b2RmBkWsc3oy87E/TqETl8v9p0Ri9kqn75fKmzXFpk2byg8dbAf/tF7klE0fukt0RTZt2VxMw265hmGtH5z0+/0CvCkKeOnoe7YDKE2Eo1GZDYUCSJKUCgQCX52env6MnWuvBmXB4CdHw+EvgAOAEqrYAVXo1PMAzEImraSk5GNjY2NfX831t2zZsuXA/oOIXuRbf381Hrp1LC/lN4e3LsUTf5SJNmeBg3P80e2P9XEsF2R5zhTC2Q3fWQqQBAi1o12QMh4qqvpPSZ6nIF0NjCr37z9DiHqekwpdj6dx3NxgEeqtz0ecdN4B/RFYlsUsT4bjOJckSTs9Hs+OwsLCPS6X61B3d/d+qpwQBrZjzOQCTU1Nrv6+4WdSUmLR9csV0LYG54BG6qDY6drpbXlmTYhZRR4z1xK9djvdbvdTxcXFexiGab/wwgsPwYOnIfNc0gjbhVWho2qeTpSzxXGxfMh9TRR6aUnJl8NjYx+zo9BNjBCiVthd52yw5h76xo0b6w63H0H/rABLNVOOGlXusiIf1QjZkM0DrQbNzc0v7zhy9K+QSbS6HUQQaInKdH/Zwppj5nleq6urO6ejo2PvWlvgdZWVZ/cPD+9Cax5agyKz9lqKaYg9ncAC0x+9Xu+XI5HIp7JdIysqyyvvGh0N/wdl7KNYqUIHaIsbbekB53IsFtOK84vfPz4z/j3r54qi5+dSKvlmjuf1auHjPPTMJvoCgFhG/zyTXMRMdaibNm8+/8CBAztXszYAjI8///nJn05PT20jRE2fGDL33JmrxJcHHZ8J0AEwxjhNnXnN5A83ak7Sh8Fgb2uaNotZ7YqizLjd7n0ul+upkpKSHT6fr7O5uXn8kUcewTSXlYVdcgDk5h9++NGfxuOxNznJtIeQu5XTnJ4TfNXJmHxu3dijETM6Ptr8vqaqapRlWVFRlCjP8wdEUXzK5XI9WVBQcLS7uxtdDli/Fe7K3CIQKLpxZmb6EaPw9jRS6IWFHw9PTn7JjkI3CX7Uysry2sHBwaHcrvzxWHOF3tzc3Hz0SCdC5x49j5mhyl3vFWb4P8rawlxGroBNWFNV95+h0MgnUcVJDxzCY9mkBDLBSotKuZY1TVPvuusu14nwUvRijwMHE4lkgjWez54ssFJMUm+dKlBRFH82Ozt7e6Y1SsfWrVv9j27/1V8IUY+bv7xahU6nIQEmUYZ6xhlntB46dGjBWNOK0oo3jIyGHmM5VFBrx1e5r3C5KI8CjRIYYzmZFMtxP5Bk6YMrXRsKeJjT07F3hMMj3yREnSsatCIXOWBQvyK6lO5tYT2Nyl7DQ6efBU8U37O2RkLZm1XyKlrSzJHfCVEUxxRF+avf7z+cn5//fCAQ6Dhw4ADScY4DxXLP//359wwOD39rKYMoFwBTHMhxaLidAtE/yAN46FgvtGCiUJPWKGA9rfPsMfwI3QYsy2JSG/YRckcTbrfvDwxDDldUlD2vad6jPT1rs35WBALBG2dmJk47hd7Y2PjO7q6uH9hR6GbXj1ZdXX/V4GAuSaUWx5or9Nra2rbB/qFnNaK5swlps4TRvC7vt6PJWUxmyjlwsJ98csf9UxMTbwTNH63+Rn4rl8QyaUVj+wkhGJ5yQsAQkuA53mV0GaxQQ6XBqjSsCt0UTL+VZfn1K33IhoaGV/R09/7JJbr444cjrMyZs94TrV8weal33njjjZemt15h4MWRI0eh5NGqM6/QV8AUh0NFf5y2XSIaRQvLILxjifjR5ubmi5cbm5kJmzZtOvPgwfadhKhGUtYRGN0QVFFDOdM6BL2AVE7p38Oa4vlo7zP14K2KycKgpa8B9p8sqylzxoAky+qYpqntJSWFT5eUVDyxeXPzXlAd5LI9zorNm89vPXhw50uapixqEOUCCLkDCLtDBtCpflDw2BNI6Znhdv374HMwSUloJElPD1HGPBpxwc/CoJqdjdO+Xyj4MZ5nD7pcnqdra6v/snnz5r27d+/mc9ketxioQqdFcadLyL2qqupW2hVEnzuztDw+WOZ2uxVVVe9KpRKfy8WeWg5rrtAbahsu7unvBcWpLoQyeVwMIVqwsPCO0MTEV50KLRXmF/4mEo1eQ4t+aKW78fJWpkAWA4Qawq7m8AmN47j7Y7HYbSci1AjPbqivfzghpfJYhhWMSn5UfbD6u1jpVxNYJAZhdk3TOFNwo9jnSULIq1ayiREKffIvT31mcGjgM+ApgGFlRab9kg6rQqfvANtOEITvSpL0b4vdmyh69woC1wrlNBdyX4FCt4JOC8wzq92R0oHQBt3vps2bX3PgwIFVdwHgXXZ19UQ0TVkwQCK3MBT6YmFjY6yqoaSoN0kNV5whvUsgmZxLN+FdmMaUrsTouzGiPMjB6+NTUQiGXHGCYZiEyyX8uqCg4JnS0tJn9u7d25tLGaAXxnV9LwqDyG5qYikg5K6nIxZRBXAeOMGIdGDOgjU1tHBtUHxo8iKYbIy0SBHjbQ3Dyii4RfSPZVkUNSRUVcXkxl/m5fmez8/Pf6a/vx9FlDkHFHokMql76JCXp4tCb2houKmnu/sBOx66+U7k4uLCB8bGxm53WuavuUKvrahtGzg2+E/kcPWQZloVcfoNsQyrFQdLbhgdHQVbWM6BTVicH3hmMjLzMr2tRDCEkNkrbnye1eVaIainAqFnhn01n8/337Ozs2tGB2gFenF/+9vfflJV1Y0uSGPC8AwKmRQOY09AhaopBMQSHNG/6vVO+ldNYzX9q6L/I5waBcYJONDxVbcLOI5jU6mUSjgS4zhuLJVKfWIlS4aUwK5du7sIITVGusJejp8qGOskNVhpFRUV5y7WNYH9EAwGPzw2NvZVS3h41bAqOCgzGAkQwPn5+SlVVf86PT199aovDk4Hl+sryaT0Uaz9PEWrkZ81DFT7BukJhswwDKdpjMIw3AslJQUPV1ZW/mrv3r1Di40SXgnw+15vwVfi8chH9JHFRijbOlzjdFi/FMMwgqZpMs/z/wgEAg8WFhb+prOzc9Dao28HRUXBrRMT4w/xPM/Soj/sP0Wx0UFjKgLrPHTd4GEFfMtx6ldgfUPD9Z3d3WZ/vYHMHvrxwL5yuVzPxuPxBT3tTmDNFbpZFNcjCiJj9EEvPs2KgmVYtbS87Kpjx4494cQCAH6Xd+9sMtaKzUOrm+dy30tUW64EtALctKS1/Pz8u2dmZu5eyTVyiba2Ni+K7XHNnTt3zrnAufR+VgMYGwcOHHhle/uR3wjoh9I0PaRrF7QgkQJjQFtaWs5pb28HF/pxoNz3LEIOZqvWakEVOu19h7EImMr32JYtWy7ev3//qj0nvRvgwKFnwbBG7xH7TB8Zqnu+9ro0TjSwfoY3r3uimkn6pImi68Hq6opvdnd3r7qwEDjzzDM37d27H90UBZTlcCGL4qltEFEjD1/1nH0igUJFTRTFX5SXl3+zv79/l913vLRCt2EQnQQKvbK4+Npj4+NwJFcQcl8ISw1VOyHkDLtrnQlrrtAxSKCnu3eUYznRaJvKqNATxcGSK0ZHR5/P9DCrhYthh1KaWqn/PmMsCQ6AnivMgUKnIUuq0IuKij46MTHxjdXe7+kMURTvT6Xkt5SUlJCxsTHbHhKlYaThXzMEhnzfG5daR3AlDA8PvxiJRFoyrXW2wRta1UzzpWY1M3r13zM6OgryHBvgHiZEw9xl3cuEYkJ6x+CZtuElnQSglfU0HI3pbzBWTHpS1eXyPFFWVv2F22+/6R+//e1vmdW0toqi52FNU7diWBTejzHLWjTrBXLGznpCYJU9dDCTOeIYzqbMMPwTFRV1X3znO295cbXrt5YK3Zy2tlYe+tWd3d2gaV61Qqdwu93ha665ptrpdsM1V+jV1dWe4cFjIxrR8hdrW0u/IYYwieramnP7+/sXVCPnEhwhCYblXLQvmx4CYC73tZpYiwmaDzO9NbWkpOTdY2NjP87lM5wOaG1tLd2//+B+TdNK5/v30dqcGxQVFaGSGAZVNoQ3X+c47kOKotg+I7RzghbFURpV/L/Iin+86vVXXbNaljCkKBiG2bxz50v/8Hq9Ap1zTz2z0yDkrld4zxfczRfo4d8kSUmwDOtSNfVv69fXf6ajo+PFlUSaEHZfv/6sszo79/9DFEV9/ainbpxbG/SlJwFo/Q5AR6nSaJFR98AmFUURPR7v34qLCz49MDDwz5WsH3C6KvSGhoare3Kg0FG7g8hIWVlZeSgU0gn9nYJtYbVS4ABxDK+gopwO27BiEYUu1a6r29Db29u70s/KBrddfrn7vh07YvxcCsDot6U577l2ExsKnYKOFq2srLx5eHj4F9nc3/9LqKure++xY6HvplIpfRsYBpA9D4kqNsrWh3afM888sx452OXWtqCg4NKZmZmnVHXxHu9sAYFKowTWNiQKhrDxTfVnXHCg58C+bK+5GETR/QVVVT8iy7ILCsnjcc1N+TqVQc8iQI08nM1Uykgl0PfrcrmUZDLJ5Ofnf3t6evIj27ZtY1diJHk8ni/G48mPuN1uEe8J64f+cLsplxONecPOWCuawqDzKhDxMJ8RlgvD89w3JSn1sbvvvpvLtq32dFXoNTU11w0ODPzSjodOixldLheicZv6+voQencMa67QAYawCsdyen1/OlPcIjektZSUVLWPjS2a77SLto1tFXvadw1xvGD0x7LGHdDQqF2Fbm3rogq9rq5ua19f32N27/30A/88es+xZsg9QaDa9TBpnzzNZQuC8A9Jko7rb08HUkO9vb0TdhU6VTpGkZDRr01JWACBE7XC4oKPj46Ofs3O+8R877/97W/3J5PS6xA69vk8euX0qQ7al02jG7QfHjn1goICMjk5SYLBoD7i1VT+GsNwe846a/PNu3fvPpTt8+vz0f/yt/tlWXodRFRens/WaN6TBVSh0JQPNSrx/yj8nZ6OoJWYDA0N6Wvr8Xi0eDy+t66u5s3ZKp8ToNDvT8rJW1caSVgpGtY13NTTu9Iq9+Nh6gCttrb21f39/SAwcwwnRKELjPiSStSzFxt+YtwQdP1cbl2tb2go6u7unnZiFTZu3Li5o719F2FYUW9dYQ2BOxcmpa75Kj10K/EKVejr1q27vre393EnnudUxTnnnLPxpZf2vOTz+dy0JUfvk89BURctSkQxUCAQ+NT09DTYn7IB8mcQ8LZh7cumLWC6cpexw5hnLrjwvOuef/75CTsf1NLSsuHIkSO/8Xq99bOzs6JlPv1pAbxHPBOAPDr2CZjsACh3GDDGv3Fgeeyur2+5rajIs2/Xrl1ZyY4NG9pa+vsP/lqW5XqeN4Y50P7vUxVW+QMPHTII+86sQ5gbj4t0FDowEgljhjrLsj3l5eW3KIqyJxQKLZv3KioK3jgxMf7w8VXuuS+KM3Poa6LQqysr/3VoePhHdjx0uv6iKCoVFRW39vX1ORqZPSEKvaSo5O7xiQnwmHOZiuLgxDc2NfmdIkdoWrfust7evj8qRNOHxVCFPncQbBbFWUOGVKHX1NS8YWBg4NenqpDINZAH7uzs/lgikfhUMpnMw/XnIxv2qoytAg3yuaqq6oKhoSEQlmREcXHx+8bHxzHhb9XnBPkzFCFBiaf3cwMY3iFJktrQ1Nza2bmQtW41OOOMMzYdPnz4LzzPF0mS5HKqv3qtgDWj0Y10GGdLI4WFhbqnbo2GUWa66urKqwsKCnZny0CHroGOjo4/y7JchNzyWj2nU7CuCQXWlP6RJIPkh6YXOE7vZdfZFKenp1V4lW63e29HRwcqVBfF6ajQkRquqqp677Hh4QXnf6V+HdbfbFeOVlVVfXxoaAjMc45h1YJqtcBghocffrj1cPuRvxNC3FkodN1vXu3nZcKmxsbXHu3p/ZWiafpYJJ0aQTXIEfTckk2FbgVV6BUVFTccO3bMkb76UxWi6GqXZaWFkmRQ5WfXQzdpXmkh2uFUKrUpW3IHgzXuyEBhYSELhQFA+METtBpqdiDyLoIZ2R6v/wex2Mx77VyLoqWl5bLDhw//tyAI56Ooj5KRoOCLEpFgLxqsbobBRBWnNR2wmDI4+ZBRNID34Uuzs9nPFNi8efPlBw4c+IIoihdg/ebqaXS5YJDyISVkpDQMWUELHa0kO6fG+mWE5vf7Px+NRpcc/xkMlm8Lh0cfYlmDW8TKCLjqlJlF7lqNcoETsWPvl9cg5F5UUHTn5NQE2otXXeVO7x2UvSUlJe8dHR09vRQ6cOaZZ1bt27u/M1uF3tjU5HHKQ2+pq7uwq39gh6JpujUOhU69KacUemlpqWNEOacizjjjjEsOHTr8B4Zh/CjoQjgwl1Xa5oAEDLr4rqZpH8pWoZeVlflCodDzHo9nC60Qpgc0VwodIURA1dQDjU0NV3R2dmLghm20trbW79u372eEkAs5jhOposY4VBoxKC0tJePj4TklTtNMAE0RUJrXkxfLK3RzH42Xl5feOTIy8v1sn6Otra1x165dP2ZZ9lJVVTmDt14iLpdBw4r/R/RlZmZq0UvS9VusEPJUgrnPx/1+/2ei0eii7ZVmDv3h002hB/ICX5iJTH/SjkKnxjIUusvl+vjs7KytWplMWHMPHYCXfvddn036fX42MmuysZlYvChuY1X72OIkIHbRWN3Y1DfYfVghGpcectetTZs5dCvM4SxaeXn51mPHjv1fUZwJjhO+I4ri++Lx+Nzrh8A02pLsVbkDyA9OTk6qTU1NLz969OjTK9kzfr//c9Fo9NMoNMP7g5cLpW4aCbYFNqh2RUHEdbSK8vIbBo8N5ixys2HDhpJwOPzZycnJtxDC5s/39s9XhyPESpW9tVd+7UAVsr3UyvEwrkv71yVJmj3zzC1X7N2798Vsn62tra2kvb3987EYJrKx+SCcQWjaSnMLD5SOlKWfZ6XJPdVBDRmOE5IVFWUXDwwMHEfkU1RUtHViYmpNFbqipG5xem3zvd57IrHYe+wodNpZEI/HEen4bDQavcvJ+z4hCh0zfTmGlzSisdmE3OsbGlq6u7s7nFgICL2ujo4RFUPd0PXOsXOTsSDo7Fa5pyt0RVHUoqKim8fGxh504nlONRi95+1PaZpyhjW0Nl/IZq8P2OJJjzU1NVWvNNKDnPvw8PAzPE6mMcteV+i4bi68V3jo+lCOVFJze7wPxuPRt+TyHV5++eXuvXv3vnVycvqTLMvWud1u2Ca6lw4PMxpdaFDT0DtVSs7n4J1V6AAdbqJpzE5C5PNWsr5gL3zuueduHxo6dofL5apzuVygOtYNO6MTI7JgjahRdDopdcMR0cfjvkSI2pa+fqerQvd7/I/MxqMgbJrDSnPoFIIgaG63+yuRSOSOley/leKEKHRwCD/+6K8PyZq8IZNCZwiTKq+sePnw8PBzK324bACB98yOHZMqIW6rhz6nUHLgodNcmjlFSS4oKHjXxMTET7O5v9MdpaWl101MTD0GI496ipTYw4A9z83ClPWYLMs3rnQ9a2trC0GPyTAMKp/1XzdHoM4NxbADOo0Lk/0SycREy8ZmUNL22bnmYtiyZUvhkSNHP6Aoyn8iL+zxeBikEbxet264wuu0hodp0ZTzIeP0kLm99z0P47p07KjJ/KYVF5d+fGRkYMVhz0suuSS4a9fu98disc+gmhvrF4lEiNttRJLgpVNPnSp1fffapA4+0fD58vSoBGpHksmklpeX9/GJibEF63cqK/Sl5gFAHrEM87+EkIut72ClCt0yMlvzeDxfjsfjCOE7hhOi0IFAIPC5VEK6I56MLRj9uAixTKqqsmLbwPCwI1XheKE8w4yqhJTgvhizGC6XRXGWwgh8hJKfn/+Rqampbzv2Vk8hcBx3r6Jot9KwFpQm/iBPaTAsGW00NoHCqLfPzs4ip7wi4GDzPH+fy+V6M4rI9NGnsZguqGnBnR1g2AQYCjEYCG11wWDJJ0ZGR75q55pLAXu9vr6+eWRk7KOJROyNLMuKDKO5qMGZPvN8beCsQqfAGUTIfGpqakLTlOLVPltbW1vLrl17PiaKwrZUKuVBPZzVK6ewFhee2jCiUdgb6ByYnJycUlW50PpMRUVFN05MTD1izaHjDBsGziojbBmK4pwOucPR+98dOw4TQuqsz7pShU7Xjud5zLG/O5VKOTrD44Qp9PXr15/VebTrn1raLOdFbkgtLSt7ZygU+h+nDoZImC6ZkAZdsJlV7nMVqjmocqcv1Tz4UC6fjkQi/+3U85wqOO+882p2796/S5ZTQUogAiFg6Ru37aEDPM+PlZaWnjM8PDywmrUJBoPbwuHwQ4Ig6FW88FoXRhFWD3jofp+fRGej+nxsWVGfUjXpFY6TZjQ01A4Pj9ycSMTeTAiBgsMfgaYTAIMHIFce81JIV+hzKnH1i6rDuC49ewiP493F48loTVXFBy646IJf2OHVbmlpWTc2NvHWsbHRbSjToOtHi+Ho+jmfsnAWlEmOtl+yLDvr9brf99GPfvQByiR3Oip0DLB6adcu5KMwVnIOK1XopvzRa2RKSko+NjY29nUn39gJU+gojPuvuz+bVLSF1JqLFcWVFhV9ODQx8S2nFkJkhQMqUdHOpCt0y6hT4yNxU6t5k2ZRjtmHaIgZlsWko7sTiYSjltrJjtbWVt/k2OTrB4aHHvD7/QzCehB+ELzwzqFIEC5FjtIOTMPsJULIcbm/bFFaWlo2PT19JJlMBqyGh5VWc7WAQvd5fWQ2NquPimRZNlK7rqatu7v76GqvuRIgR/zCCy9cMD09/aZIJHK5pmn1aI+303u/Mjir0AEoI+S8sacE3oV88GOqltiWbbfDcoAce+CBBy4aHR29aXp6+uXEcAwQddSNv1Mf7BzLInVyRJF/JJlM3kTX73RU6MYQsW4QPS3YoCt9o9Q5gdzPz89/7+Tk5OnXtmYBtByLAWdut2dueACtrIQiJITVBEH82TXXXPUeOxb1cnAL7r9JcurlOPixuBHiRU4znkzYPo/UQ0AuBQrArHb8VjQa/bDti9uA1xt4u9/vnWBZjec4UbejZFlexJ4yDBGG4Rfdyyjyw4wqgRX4pJwUPB5PNJFIuGRZZjVNOzY1NYU81KLgifB3mUgX2XiMjOA4TlUU5XOEkP/M+MPLAyM2X0Z52SmNq12hTdMxlgpzWPKfDYfDdzvtpacDYcaBgYGm0dHRK+Px+GtlWf4XKHee5zm8T2MfGLPWAV1B6nz7kjVXqH/PGpXCM9Kfo8+bKbw/x9RoUynSSAo8TX0YjtF+Nn3ppReX79ixw/4BtwBGaiQSaZyYmHjN7OzsVbIsg2JYEASBlSRJn4RHOQFobQItrqR97FhLq9EI4Pcgm+jv4GcW9novBF07nYnQZoQFb9qs79C/JpMSEThhpH79us2HDx8exycXF5dePzk58ShSOrTld54MaJWRFlMSwcile0CPfjA80VT1foUojla5n1Fff0l7T88O+xwoBkeBLMupysqa91RUlNy3momA2eKEeeimcOhjGK0WZ5bjjCEB1o1qbEwcAvJ7TZNenwuLejHk+3x/TEnya5OpJG0h0qvbWYYlirbKDbkIaDiO47jHksnkigu0cgUUeg0NhQ4qilRu95rmBlIYwrAYuMOwrIK+XbOYbWdbW9vLFtvADQ0N63u6e/doRMVsdieRbGpqem1nZ+cOOx8SCAQ+PT09/Tmv18tAoBo9ya65+eZ2gEgECtTo3mcY5kVJks63c027QA9+IBDwTE1NXTI5OXm5LMuv9Hq9LbOzs9DYcVEU/VSxWOfN07/TtbEOOpoX8gZBD6VvXQq5IGaBIjTSOPoscDooRy0pqbooFOr9h911WgqYKun3+70zMzMXh8NhrN+rfD7fxmg0ivVL8Dzvs7a/0Y4JGvWxGkr0e9YuELpnFlPYuVboJcUlZGzcIIrzefMQTUpUVJa/ghYqnwiFLmuyo1zu69ate2vo2MjP4smETR05p9Cl6urq2wcH++93as/pOtXJiy8H0H3u2bPnWyzLvpuyWeHwmzzMc9XJmsYQl0s8lEwmNjl1rwUFBT+ZjURvkxVZb12jQsjShW4L1tCseSgPNTU1nbPSFqpcAa1i+/Yd6BMEQedNtwPWCBPrlLnUuzBTFjLLcn+8+OILt6V7Qnj3e3fv/wTDkP+SFGOymlPgOK7/+uuvX283ulNWVrY5FArtgfNJJ1Zl8jKzgXSU3ZMAACAASURBVJFWMKiy6QxuWZbRM/+yzs7OF7K5xlqhvLw8qGna+ZFI5EoYHJIkNfE8n4fIDtaE4ziGKk3ar49CNMqyB0Vj5RLPFTlPNqAK0uPRjSctL6/gY5HIhKP5zHRg/ViWvWBqaupKWZYvTKVSjaZiZ8x1YdBOSOUFzhW4A0ZHjYmbWD+kpPAVLHVLGTxUoQN2Ixw8y+lFmwIvgNFQd7C8Hq8msPyHX3XVq76LiXano0IP5AfumZmZfhd8zWz211LgeYM9GDn0qqqKa4aGhn5v53qZ4KgwzYSKiopLQqEQQrI6PSUOuCCIJJGIzx1AM4URa2pqKHJKAdbU1LxnaGDwHtwHLPp4Im4IWEEkSSmV6TGWhZWLmh7I2dlZuaqqqn5oaGjQ1sVXiXXrNrT09nbupQxidsDo0RWOqMRo3THSJLogUViW3Ksoyr8udn2WCO2CwLUkpZxGPY9DYWHhfZOTk7ciV4xvbtq0SaXFPDAsdu7cuWwZ7rZt2xgILRSR9fb2/sXtdm+g3rTVY1otILzhzeKaWEfsERx+VVXvJYTcvtrrOglU/p977rnuvLw8tqOjoxWpiOHh4VcSQtDjHaDVzjSPjOei7YO0xQuwGjNOAetJB7cA4C6HfOU45kd33nnnB7MdEZpLYP3e9ra3iS+99BI3NTV1lizLdP3O5TguoKoqY+ZedbmIPWI5V3MeO7osoNgXU9q5SllAQaADA/eACCbL8IheKizhfqgQ6X1Yl9NRobsF4VlVIy9L6UaMHRgkVIqiaLW11Wf19PTYGpOcCSdUoUPIbt++fZRhmAAdj4iHh5VKQ3amN6QFAsHNExMjWY9DXAnq6+tb+3v79qiaqq8H5rRTD0NWV9l2YQHNuwJmfgwz0a/s7e19YiX3mSuUlZW9MRKZfTAWi+Xk/VsV2xwnuKJoHOG+KRPpI+n3vW7duvMHBoaeE0WRjceXHeRkGyzLJlwu105JkgRRFLlYLKaaOWHQeSLnp5j9w8itoHPMWiuA9RF5np9EixfHcRcZfOiGpwkYfOj2Yfb5WivoJ0pLS2szTbo6WYD8KRR4Q0NDMJlMnj8xMXF1IpFoYxhmHb7HsiyG7ghQUCB6wfmemlqcNjWXsHqrqGhC1M3r9arxeOqXmiYvIA05kaDrd+aZZ5aEQiFEQa6OxWLnEkLWGWl01g+yQuzVedrZmWUVdy5SFlRAGB0YMuKX+rtTFfL7pBzTJxEGAkU3RCIz2xfLoTO6qb8KZMihOx1yZwg5xrFcuV35Lwgu2i2iVVdXlgwODtqaqJgJORHodsDz/KOyLN9Aw29UkdPCOFiGkiRphYWl752cdIbYHvnC0VCoNz8vvwQCWvciTEW+qs2YBmu/shn6wxjPL01PT3/KztqtFl6v7wuplPRRt9st5mI8JJQ4Qve0sEf3MlOS5nKJn5iNzy7SU839DyHarWBfk2V7EZBMwMznmZkZXYnAC6ah12zDvdZCJihz+vu5Au4D08ImJibmirZMFjfskWtDoRBGuJ5ygBe6bds2fu/evfmJROK1w8PD18myvJEQUi4IQiGKxKy5d6dgcBkYUSDrOfR4vM+uX9/02n379jlrUa4SUI7nnnsuPzs7mx+NRq8cHBy8hhCC9auyrp+VrdBueH0xCKYiBxB2B2OcPm8hKe3UiKSz7i2n0FdNDJWu0Bnkh+eL4pxU6Jg1cqT9cH8ylWTty/+5gtAoIao+SdJJnFCFjk1bWFj4+qmpqe2YPwylQA8gDTHRkJMsyw8RQm5yajF8LvfvZVW9KmWG2PP8eSQSjdhW6FYFQAWY6Y0dKCoqekUoFDISZGsIj8fzd0lSLrJyUK8etGjQIKBQFcWoTCWa5vH6/jUWiyxgxGtqagp2dnbvLy0tKQuHw44IISvmOeENylZLpfOCdsJ0WEOWehomHtd/3kgLCXP3TYe22IGFTUo3PPBeUqkU2hsfSqVS6BNfgOLi4vPHxydfARkrinr3wWLnWJdFqqpaiZuOk0+iKPKxWEwRRREvUnG73RoMIBT/xYzww4pZ1ZYCWrx+/vOfX9Dd3X0Lx3GvUhSllmEYzglFREENMqwxrXkwDdDRurq6H46Pj2uoWbA0pi5Yy7Sis7n1o//O87w3kUhoPM+rbrcb4TwFYXC/389Go1EYC1+2szesgJHU0tJy4ZEjR24VRfE1qVSqkmVZga6fE+vIMcb4WgBrmEhSA5xvV7UkWn21NVHodGCQWeXupEJvamq6rKuz8ymWYRm7RdGiaLRMsizfrqqpM3K1F5bCCVXogDnRapDn+QIodOpJAfD4aM5NEIR9kiSd6dSCBPLyvpBIJD+mKIoA71zndWeYnFS5U0UOxQCL2hQsWmNj48VdXV2OUNouhbKy1tJQ6MAQlhcFNnYVEpigDKFJdMtdSqb0sCZDGK2woOAN41Pjcwx/MODKy8tfFw6PPy6KPJuL6EA2gGdGQ+M0mkAFRCZhSCNGlZWVZHh4eO73gFwIUNr5gL1PDQ6aS5ckaTI/v7ppZmZhmI5lXf+mqtLdyLcqyiI5PpQxzDdnZHQykHqg9K+AJYWC37VVFLQUwKs/Ojp6XSQS+Ybem6ppSzWk2wZ9h7TljraQmhX7yyKLsLUkCAInSdLc/YMVDIWC6MrRNG0BE2au0NjYWBMOh6+LRqNfM9fOEcNIzzkJIoGjg7Y12D5YE0nW2m/ceu0W1JcEAkU3RiIzj6xl25pTCv22225zP/PMM9u6u7ruFXiBsZtDpyF3URSeisdjr3SqU4vihCt0nXqV53+gKNrbOI4TIKDgwVKiEYtSVwsLC4smJyenc3UorGhoaLh4oK//f2VFZlEEAgGXC4VOlTmuRad14e8ulwtxwOcSiQQ8rTVBU1OTq7e39w5Zlu/CkI6cKFSEwlhWL47TaVtZQS8q5DlRrSwuu7hvtO/5tIf7HSHkFYJLdEup1KoJe/4fgRYIlLx7enrsR9bnzcsruC4ajfxc07S8VYc0s4NaVlaW72Qev7y8/LxQKPQLnuebaH6Y8spnmxbJBHodmn6hUbMslLVdOCqzgOrq6n8ZHR19SJblesgsPb+tqrrjADlqzGxfPeCh0wFVaONVNSP0zrD87mRq9hxcmRLLwIKhRq7t8cdUM6WZo/q4YZa9T5aTb3WKpyHf6/uNSshVsViMW2UFgAWsWfwZu0/TZMfu+aRR6Kg0Hh0dPXNgYOhFtL2Ul5eSoaEhfUPo085UVfdsDZ7r4BWDg4O2+omXQltbW8VLu3btdYkutOboFmku+tDpxrZ6YoApTKJVVVVv8vl8/+jo6DAaPR0EFHpnZ+dkfn6+B2FVjBVF7tYO3F4PScTjaPMg09PTc+NAU5IcLwkWNoTD4RF6/Y0bN9a1t7e/KAhCqdECs3oGvkWwVOj5lIYguHdIUgIMZHMoKqp89cTEyJ/y8vKYSMQR+5ZCEwThHEmS0K7nGMrKyl4fCoXu9/l8eTDkaWGlXlmdtDc+l7bCQsHR1Emu+AOygFZaWnrW6Oioo5XNRUVFN0xNTf2YEFJIHZG51lubxDxoW6OT44wIEmNMr4ul/iyT5GuwBidAof9clpO3OaHQr2xqyv9rV/cLsqZuRJTWrkI3qXMxOvXuaHTGcXbQE+6hz4Md4jiukua5fD6PXsyCzUTzVT6f76uzs7Mfz+IgrRiYAPfo9u3Pu0TXeWjPAHLRtmb1AvB3axsbno3n+SFZlqtXfMOrw70sy96kqqpeom0tGFo1GEJYDgT4BiuVx+XVPSxG5XamtPiCUZWFhYXvnpyc/B5GUHICqwtrRcodcc/pCVatqamqGRgYMOL9hKA3+ZxoNLYT/A25mBe/DFCY947p6WnH5igA4M3etWvXIbfbXYe9Q9nGsJ8y9/ovP36VGtJWOmeDXhgDdhzfMXBCbg+Hw2hBdAxNTU35nZ2dewVBWAf5gnOVq4JDK1OcAb0PXUrEUw9ev/Xa2xFyP50UektLy4Yjhw+340FzIf/Rh66qqlZUVHDt2NiY4wWuJ4VCR/var37164+4XJ47Z2cjXpBRwPOgipyGyhiG2XXOOedc6BR1ns/l+nosmfyQS3QxVKlnTEBmAWvoEALGGn1A5IHjuO8riqL3dDoFv9//3lgs9l3wpkO4IXdulxZSP948Q1RFM9paZFkPiTEME2VV7jspkvi09Xl4XvirpqlXQBH5830kGpn9v5B7RrAYu/iJuKVbIC+vpTgS6UAdhAtlb+l807kEx3EPKIpycy6vuQR+Qwi5BsoW9Q7Ze9HLK/R0mOkuAkPIcBYcfTKIj0cIIW9y9FMMPE4IuZby1tNCtswG0fKgVe40jy4KbkQvZY6IX5NJQh8FWlRUccPERGj7GobcHfPQm5uatnX39D4EGYVns+uhI4eOLq2amqr1AwMDXU7vg5NCoQPV1dVFg4PDXRzHFWBTIvSWPj6TZdlUQ0MDGNYOOrEwDQ0N5/Z0d6NITaAbOBcK3arAAavXrheSSRKIRL5CCLnDiecy5hVP/FAUxUJUXAJgoEK43a5Sh6etyAZNLkJxsdk4iChSVTWVl/f29v6DFoFUV1dvGR48toewGovnV4mir4Mq52KFT1+4XB6IlUPBYPDcwcFBnfEI0aTt2x8b8/l8BXaH12QCz/NTpaWlraudVJcNUP3+pS996SlN0y7GnqAkO9kpo+XHry7oQ9cL/jB8SSOCwFGSGacRWbduXWtvb2+vUx+EtOW+ffv+wHHcK+Gd01qdXHjplCkO59soKuTQj66VFAQ/FJ4K6SOgrQod/29GHk3u+VVaTMvk0DmW/XnSoZB7UaDoB5PTE+/0uD0MaoHsSycWEaGJjRuby51yRK04aRQ6IIruuyRJ+g8UylEaTBxAKCHKtuP3+++Ynp6G8nMEDCF/EwXx5cih5yLkQhW4tQ2Pgua3ysrKSCgUQssLnutTZgjSNmNJMLipPBbrvSUWi30awh8FMqj4hrGE/PnYWA7S9uYOQqEMnkfgRLS2jDQ2rVtnZfbL9xd9NhKd+neXW9RZsDBdTHQJJJWwy8R0GmBhVXoadIWlFhVVvGxiYmiOCpZhuAlN0wodLorT5TPa55LJ5M1OVeiWlJRUjI2NgTURs+d1RZD9rPnlFTo9fzSMD3mCSu2iogKd2MZhDx0RDpzrh+68887bnGKlq6qqqh4aGupExIa2QNJiYrvUzvDQqZxC9w/HCviquUXvtngq+ujppNDRLcAyzF6GMJt15yQey4lCZxj2z5om6/UGTuOkUehQ4hs3biw6cuToPkEQKqknCYFFQ9bmYf97MBh8bTgctle+uQSqqqq2jQwfw4i7QlR32rXQrNO0cP90Shf+nVb10lY2j8ejxePx3QUFBR9ZbkpZJsBi7+oavHJqavxtDKNcy/O8PlAEQEjT6HNGyDHTlbIAg3AGT6SkbHhDGkNYjn9IUVJznAGXX365/+kdzz3v9bo2RmMRTm/fU4xxlpp9Ir7THDp1pJZKSd8jRHk/fVieF55iWe6yVMru8IjlgUjO2NiYxrLsRyorK39IowS5woYNG0pmZma2joyM3IN0EIxOnA2clXkZsBzSFTrFvGc4X5gKBWtMPFu/fn2qq6tLNFrQnYOZLkTa5KN+v//Ho6OjsVwaRi0tLcUjIyNvmZqa+obb7WZxthcb5rJaWKvcPW5wJOgFw0p9w6azu7v376cKfXJydDvlQ3DKQ9frIRge4zkd8dAba2vbhkOjzyWSCb3GCE6K3bY1UXQrLMt+KR6fvTOX730pnDQKnYJl+TtVVb0bSsiocpd175xamlgUWPROErIwhOwReOFMVGLb1XnWvnprLj2dB5z+nFk0h5GfjxcVFf2uqKjoserq6tRTTz2VXKqqEyHY7u5uVzicKo9EBl89ORl5C8NoF4K0A+tnncwECx4wpoUJ+jhEW2AIycvPJ5Fp0FByaF+bChQWf3JycvSH9LrV1Q1bhgb797AMYRFqx4F3eUSSTPxf21omWKgjpwhRC+cVuvgJWZb/W69GdBjgQp+amkKtx4PBYPAzIyMjOQsfi6L4+VQqhVws6E0XnAtaXb08FlPo80oaSkD3tkyKXrPHP9Ta2rp79+7dl2mahpyGoygtLcWAFYiS+xsaGv69u7u7P1cf6PV674rFYnfyPM/qNSzmPACsZXYG0fKgRXF4F6grcolYLq2zpLSklRp3CLmvsUK/L5njtjU4QVPh8Nt6BwZ/IAiCHkXMkYeeKi+vfucll5z/oN0BUdnAcWGwUiB8NDIyultRlBLDUp/fmFhkTdNSJSUln6mpqfmWUzmJ0tLSW8Ph8A/oYafhP0M4YJBGgrCsMafXwZAdtSWSPM8fZFm2g+O4Y6Iohrxe76Qsy25JkkpTqVSxoih1yWSymRBSA8MSxSk0d2g3R54dMHON6IVxiqKM1tXXtvb09ITo7+bl5f04Epm9GWOdqZBOb+NbLea4483Ru4CV5S09h2qF3ZYeIN1IAywsYrZDni6jCAl1CVpewH9NQ0PDn7HvCwsLN89MRXYrmszTISeIfOBPLjnSKRkLoBPda9oswzDP+P3+R71e71OXXnppPyqds3l/CGk2NDTUTE9PnxeNJl+XSsUvI0StszX1kWHNwsrFPW3RkitHGxLL8gmvx/Pwxs0bv/7Pf+zczYscS0l1kIZCO+fKQv6ZQdcQ1c6EEKzfs/n5+Y8GAoGnbr/99v7lQvGIXFJDHuvX2NhYPTUVPy8WnXldIhW/lBC13s766UE1/eUu/hzoWkkkDepceOjxRFwTBeHrNXU1n+3s7JzBv1dUVN9w7NjwI7DI6JCt+e4kexEQfUCAwTxJ3x889PtNhW7v4mlw8fyfUrL8GjwnjCHdoczg0tHzj55/nU2SGBwmupwzV7ahun5D12AXUiKO46RT6MbAlsfex/P818BghfYSLBrCZoDJbPYSul0cXp3dLMuepZPLKIpuZaPP2hgcY9BIKgpenLN3gec2B7ooqVQKjFr4QFS2gcELf/R3aBW8pvDNicLKBCgcKFU9baAqmsft/uLV11z9H1TIb9mypfDAgcPPapp0Bq1gzjUfuhW0NZAq1lwo7eVAB+/QHC1Ai7nw3uzmMBlwQRujKyWWMI8pRNFTGZi3PTQ4fIAXuAasPUK7CFdDmGCdcT92WQDpvgKo90yfT1VV7EGZEDZGCD/A80y3LKshv9c7mUgkk6LIeQjD5CXjqQCGLymaVqsRFYNGAgxhQKOGGYsCIkj2kKFtTZ/q5tGHiuDsqipJ1a6rub6rq+sPLMMdYli2BU4D9iQdYwsDCR69OUfC3u1ZzqbpkOiTtzRNw4UlGBiqyvYTonYRwoz4/b4pnnUlE6lZTyKRDHAck8eo+vrV0fXDuqNITSOKAKZGW1ii+IwC+w8AzwTWBwVxzU0bXn648zCmZOoIBstvDIdHHz6VFTo4Mro7up6WVbmWEulk04dOCw9R3Ey7fPS2XZMuV9XUjnPPa7vsn//85xwfh5M46RQ6UFZWVhoKhV8khNRZi35w0CCoYrGYVl9ff3lPT8/TTi1OcXHx+8bHx7+DnmlYa1aBTelDc1FFmi2sXufcYbP0tQOUiMf6facVGj3woIVMJBN9VdWVLxscHERLlfkua18XCg3+GtFURDpgFNGxj3qVu80QBw0xUs8/ncqVFiMCi61FpvWx/v5iyC4svHrQ9TVnC6jB0pLK0dFRPfrBccI9iiK9B+NKrSxhWNdchFsBKqjSK86pAQmuarMyXfb7/ZzJTKYYpGE67anCcRxkve69WY0dvLtUyu743MwKnXasGJ4eM3Hj1hsqEP7M9wc+NxONfNLtFjlwXiC6QT1MGEPzbGerR6b1w/Y38+yySSGrb1XzDx5O4owF5LB29LzMR7icHW6EIlesA7x0TKFMppJRLW3IyOmg0NfVrHtj30Dvg7C/DEY8VY84SsryBqd1DgNkBdYLETX8LmSDx+f+cVlZ2QecGv2djpNSoQOi6LlJ09QHGEYzc+kGaxwQDAZJOBx+VtO0y5wqNLjwwguLnn/++b8QQs7BNCyE4nCg0COvW6rmdDG7HlgmWDcMnSu9gHDDnEJkVVi0qAg/nwsvbTlA4RQXFaMFTiOEuUMl8oIOBI4TH1EU+Ua3W9TTALgfWpiHtcuuNSk7pBs4OFCZrp9JYWcyONJC0vqNWo2vTAZDJiCERytuwY9fXFz0b+Hx8Hfxe5WVlReFQqFng8EgMzJiOAAwlmiRpXUSl11QD52GUqlCwXzxdMOWDpjBV5wbnRLYnMtAaV3pOtn2MDModJfJQw5l7vF4ZCklb7/2+mtvwefv3Lmzra9v4AW/38vgPuk90ahYTqiR6VARM7edvn6plKEwKI+/Xl/iculnF++Pyhm6fpZZECZyGnU+Dth/NNwNI4PnuAdSSkpfP4q1UugAquxZnn8gmYzdmkvZL3Lc/4gu9+2QFzBe9MlueAcZFLo1dYi/Q6FbdINWUV7+pqGRIXARrAlOWoVuzkp/jBDyOspPDOEKBYc/kUhEKykpqRobGzvm1EqVl5dfNTY2hvGuHrMwyOTlnZ2buOW0QkduBoLFUhSoH3qqvGjVPBUc+qlD/sbpXIAJKHSvx0vklNxTUBLYYuX9rqysrBkeHulyu916aBVeI/V6nAi7pyt0IJNCz7ROy+Xg59bADK/Ra+VSoWN9zegHKQgUkKnpmWerqstfjYIkMz01yDBMsLy8nBw7doy43aK+X6gCsbs/6bNQwyVdIQH4DDofnoau8fP4WcrBYK2dsO7VTAaTXdD78Br5X7Wuet0VxWLxnl3du6ZRIX74cEeXyyUEkD+HUUTpYXHfeKZczLuna0cLYfHMdHIf9icij/QcWwmfqBJPP8/Wd5Jpf+cCkEEi7yKTU5NqTe26y84/v+1Fa4FXMFi+NRwefcjpkDtV6ALPPxDLoUK//PLLC55/5rl9KSWFGqS5FlzMf88mo0oZN3XljmlwpnxWVEVqbtiw+XD34Y5cvIdscNIqdCAYDJ4dDof/DB6URQY1oD/2i6lU6jPZPOhq4XK53ivL8nd9Ph9DD9t8wYfzoAKJCgUqAPXwjlmxTkPt2dzXsi3PqwAOuiRLmt/nuz0yG1lAcVlVVfWukZHR76MWIh43xk4jwoGw+yLvc1WwGntA+hqY9QcLlIgVmRR2JoU/VwBj14Ba4sVAQCD8h4FB6AMWBTFVVFJ60bFj/bvwHB5P/gckKfEtVOYaqSEjLEv3jV2kTQicK0KcyxGakTOrl44IDDWukLeGV0nXhxYxLvaunAD1tlPJJHF7PA+sX7/+XdYZ6B6P54MMw3wDzGC4V6unnAtgXazPT88x/Uqn7NFzTfcrvk/Z8uiYY+oN0nebTQTKLqgRAs9TVZTtt9x2y6333nvvgjxJeXn51pER5xQ6DYEDPFIAHJdThV5XV3fV8ODQ7xBCxH4BocxKxmcbVMIGTTmjGQQ8esie4Z6pa6x71VqF24GTWqEDLMt+kuO4u2RZduk5CY9nLuSMituKiopma87WIfyMEPatNFeJF4gDaIS/7BfNZAINoQNGMd58IYxVIVGhSYsI9dYLs13HKTCEVTiG/WNx6RlvCoX2GVrb4OcWXtq190+8wGGwiM45jueANxKJRBaMxrUDa/ufNaxp7p0lw87pXvVqAYUHoWxVovTvuSiKw/Q6KHK/z0+iszr1glbgC3xtcnZSn2mA4rjBwZE/E6JebK12h2K3O9jECmpAUkPMmi6hJFAAjExrmsdqWCxGruQ0qPckimJ/IBC4NhwOLxg0g8pxhmF2MgxzNrz08fFxfY8CtEguF6BnmO5XumcoINcoj/1SURW6v6mCXwvQEcuapo1s2rTptQcPHtyb/rlrrtBF8YFYLJKTkDtafp/4wx9+GpmdRRqBoYYzoo56+N2c67EU9DC7IOhyRt/rKqEGiFZSXPyZ8Hj4i2vxnihOeoVuHrhnOY67kOaVoLjMg6oVFxd/oLCw8CdOWkF6RfFQ6CWWJS2wmq09rU4r9HSPAWtArXjabkMVONYlXVA4DZZwvWUVpVcdO3YMAw3mgHD7yHCoFzwzxqbn9ANChVV6H/5qQUO6hJBujuP6WZadNj+HMz0aav1Y9/pSf7ciPdq2WPQNRn1AkiS0DJalGwm5KKpCyF3nyVdkmgcm8Xiyo6GprpXu+dra2rb+/sF/IMWI/WkUxKk5r9K2hn6tESIYDtaIC/07BF16OyH9f+pt2k0JZAnN5/N9KhqNfmWxvGt5efkZIyMj+wVB0Hu5Abo/7UZelopI4N9phwTWCTLFuoa0q4ca7zTiYS18zdUZygKS3+//UjQavXOxn6UKHbV7uF9azW9EHezl+HFQj/PQc6jQkXY5cvhwKD8vn4Mhao2GZEMsZpXP+t8tCr1pfePlR48edaxwezGc9AodKCwsvHhmZuZxRVGKUQRDw2gQJAyjTZeWllY5ObMZCl3T3MVDQ90Yg1hID55xH8yC6UZUqFNWOKdzhHYBzwAKgB5E3H96vt6qmKjH4/f7tWg0OlNUVP6yiYmR47j1/V7/t2djsXdjfLJxj/YO9lIww5JaY2Pj9QUFBejR1ilzTUPQmQ+1wOQh/0YymXyfqqoMbXmCIsiFwIVCR4EOhD8dGMQy7ExVTeVb+vv7MVte9zL++Mcn7o7FYh9UVdVPw9+GsDGIfABrWNx6hk5lYHXwLNgHiGC43N65qAxlYkylUoebm9f/y5EjRyJLPasgCN+QJOX9vKlJcQboXqfetbVzAEoYZ8V+lf6JhTlMyeg4AN21y6Bwps9qrkF7W1vbufRspaOsrOyNoVD4QY4TGDg4C6OG9trqrEx1uqHF8ER0u38Ri0VuyUVRXEVZ2QdHQqHPsQzrt54TnLVs2tasNUH6mSecvl+SqeTAZWdd2rpjz46ptXzDp4RCR/HPY489Bjapf2dZXsDCoVDDyMUyoNb7tiRJH3F64fLzC2+KxWbvl2WZpflrWU7NKBv/VgAAIABJREFUVaJjI1OLGi86Pfx4MmKxkCgt6sAhN9t4tFQqpe8VmtdjGGamtLT01ZdeeunOdGIRkGGwDHeA5/gz5qtEndOtLMtONTc3n9Xe3t53Ita4rq7uhr6+vu1gN8T7x4GmX+0adKhRoFWzdIY8y7DQ0j9UyPyEvtra2sL+/sGXPB5PbTweZ+ms+4KCfJ1ohr5nCGgrPeipDnCN68Vr8ZjebTEdic5FqsyWMTkYLL5oZGTkn8s9a1lZmS8U0sPxjW63W69HwLuDnEHonQp7GGy0+jwXHuiJBvYX1g+zFXxeH4nGInMetkm/K1VXV188ODiINuJFMa/QOX3/n2wK3UrOkw6vy/ureDJ2HbgeqOyG3M522qbV2NPnxMf10dtqYX7hdydmxj+41u/3lFDogHHgxn/pdouvTCQSevOp4SnrOWw1GAw2h8Nhx9l4RNFzgyKrDyiqgtGV5tQmg9gDB51attZQ46mAxfKb1MOkYSXAFGyp4uLibePj479OfzadQnFq6rzurp5n3C43GzdZppzy0M1oCdoLX32i1rm8vDw4OTnZoapqAfYAVQK5ICYxiw5N78QohISwcbvcI26vq2VycnKaPndxcXHL9HTkOVmWC1AkR9vGILD9fq9eu4D7w/vEQKBwOLxWIW/HgGlgxj4leq1BeVk5GQmNkMKiIrRSSi6X94PJZPT7mW4AkZb77ruvore3/6iiKC6TrnXOMMdn0Jw6jQgY591uH/2JBTx07A+0aiG1A4MFLXx5Ad1hQqj936LRKGZbLImTXaEvhbq6urP7+/qexYgLdJLQmhN9Wp2U0kP9CmLoGWCNduG8gnSpsrrhiv7+I3/P9Lu5ximj0IHa2toz+vsHH/f7/euRc8Lmg4eM3Icoij9NpVJvz/UCLYaG6ob13YP9L3g8Lh/Hca5odGZO6cE6peF2YC3aSuyC5vkWM0KgMK387+AH8fl8N05NTf1qqc8N+AMPzEQjN3IsJ8oqDbllPhirBAZffCgej+ujHE8EoAzuuuuuP/E8/woIR3M/5qQojebQ9dweMebO69XNqqJV19S+YWCgd86ogidSV1dXPzY2sSMWiwUJIW4UNcHDp4on+znjpwY8LlqUSHRDaiYyo1OUxhLxUE1N7bsHBnoxJzwrwBiNRCKNXV19v+c4phL0yjTCQvPdOCtzBVB6KsOxfb0moNSuUF76BMbxMZ1AJpGKh6qrq98zODi45DmnKCsre1MoFP4Fd5J66EshPz//W5GZmQ9wLKdzt0OJ0/5z1KwY66B73MuCFoXqbdUGsUxHY1PDXI3LWuKUUugQWGVlZReMjo79rbi42I2KVBwo9OCOjIxoNTU1/zIwMLDTqQU0KoqNmdTB4OX+cPiZHxOivdHn8zCw3qnwpJXoucihrjVwz9Qjtyp4s5JzND8//5rXvOY1u5bi78Zktf/d8fSg1+MNLBxu4IzgE0VRLS8vX9/f39+91mtlhd/vf28ikfiux+Nh4AkDuVCelCkOVbcwFKDUTcYuZBR/pWrSjdZcImoHzj33XPeuXXt/73aLlyFVAgOTDv9Bt4F1WMmpDirAiouCumdppiWOrW9ouraju2PZMPtSaGhoCHR39/6NYZiNLMt6sPexhiYLno75s+3Mvl4rYH9RZT4xMaEXghFCQk3rG689evQoCi0zYi0VOohlBJfLdg69qampurOz80WWMBVzLZhme6gu94im8z/MRxgXB61LoV85hgfj31cTqfinMi6cAzilFLqhSIP+cHj6dYTID+BcoXqaMmJhbvOWLVtudWJoS1FR1QUlJb7Ojo6OuSHira2tvvb2I/8lSclrXS5Xg7WYBELAStV4ssKaQ6eVtNY+VzPaAPy1trb2pv7+/snlnqW8tPzW0OjojziWc+Hn1sBDR5pl/Yle3/r6+rqenh4YFfpM71zVT1CmLih09LpCkcB7yM/LRwRArS2pKesYnt+TFIZS6vsvQrT3g77YKCDFcTcGR0AA4f9z2dp2IiAaPPdYdny8Jgj8vuqy6lvaLmw7Yme6VVNTk2twcPibqVTqXfA84cFh/enZgLGGv2PWxCkJk/dA7y8Hl4BBdarJirx/0+Yzbtm4cePhbNdvrRW62+X6RcRmUVx5efknQqHQf6Nr3MrdPtfdQDSd+2Fefi0Nk7nUiHRqrLZxU8tZBw4cQAH1muOUU+gAQmN79uz7FsuytxCi+qHQ4R2nUqlUMBj8QHNz88937NiR0+RWUVH5VkmS6yKRsa+mv6VgMHhbOBxGUd5m9KpTNjurRX+ygqYHaFU2YCGvUVVVnRYE4WOSJP0U676csWQUwwl/8Hk9r5yNzfILLVxHPBmE278Sj8fvONHri0rzxx9//O+SJJ1PuyCsxtJqAQ8KxUoIm9NCHYBOvvL6Cj42Ozvx9aWu73K53qdp3LtSqcRm9NkGg8V67jx3TH1LzSPPFvb2BQQYuNolSZlhCLlvfcv6/zx8+DBCdzlBfn7x+2dmJt+Js41iOVDrwpOdT6XZu/956trVwt7n0wgQz/FRQtj7Wxs33bmrY9ec05INKitrbhoeHnrAiZA7uhjMqWU64KG7Xa4HI7HIzautcjdpvZ8ghJxrzIkEeb6mRypoQbBe4KwizZUZtNJd79mPpZ7RiHxp5t9yBqekQp8H/3dC1ItEEWM7wdutFw91Njc3v/rIkSM9uVyypvpN13T2HP3SXXd9unWxcYcbN26s6Ovre3s8Hn+npmnV2NzZMLedaKT3D1vueVQQhMPl5eW3DwwMdGW6T+SRf/KTn+QfGxrpVDW10Bylahk/aE/wLAGtqanpIoQGl5oVv1bA83/729/+4sTExPuRu5734OzZlZhmR3O2tCAOCszsPiApWTmkKMnNyz3/xo1tFUNDXVsTicQHU6lEvbVgzj5OuELXOIb/TWVN5Vf6+/sdKUJqbm6unJmJbz12bPDfCCH1iHggwmGkVuzu6xO9fqzmdXl+X1RU9OWBYwPPrGY/nACF/lAkFnnLahV6VVXV1UNDQ7/meZ7TFINVEaChdnjmei1MAimu5UFZ4vTImSwni4qKPjUxMfGN1axjLnBKK/Tm5ua8zs7eQ4oiVaM/keX0ync5mZR+09p6xq1Wike72LRp0zUHD7Y/XlVV8bKhoaEXlrpeU1NT/tjY2G1TU1PvIoRs1IcZa9oc+Qull7SGt639rdY+dsocBdDCNWs4nDKSpROaWK1Mc6PNKW5azU55oq20sajhc7lcUjKZ3FlRUfGDY8eOIa2RNQoLiz8ViUQ+L8vyghY3u6BrRStwATMnPEGIWmz3+rlCY2PjRd3d3c/Ck8O6zoe5l4amrfwIWtuCeJ5XfD5P29TU1HEMXulAa9vU1NQtMzMzH3e73VXw2Gl7lnUPUSOPksdQVkQajrTyEtD9RNu6MhGxpEcteN4YZkHfcXq7H/0scyKZ/khmbQIspf7a2uq3i6J4pLOzM5yr97gU4Nm1t7ffMjU19TGfz1clSRKD4Sr0mej64I3ygjDHcZ+e1qDtoEZUzPg067pZ/05JWqykPlZg/SgZytznmzz6VoKf9PejKApoB0eamhreUVhYeNjOeM+ysso3jY2FH1AURX8azL1AS3H6c60G9P3j2dByiWJoj8f7cDwefdNqrgfwPP8rRVGu0/fREgb3cYp8sWOq/xAmrBkpNkmSEjV11eXd3d1znSdrjZVLk5MMQRIsn/VIz8Xi0fqiwiIyMalHi7SqqoptQ0NDj+bqduvrG9/f09PzrYKCwPempiY/kOm6GzZsKCGEnNfb2/vVVCpVSwjx0/YGKsCsFI50NCyEp3XKEyxFvarZMjrRCipQ0wUl/h9/qCdnnbxlZXIyhYDG83woLy/vlzzP/zidHjMbmINCnsd0OlpElItJb7g/WnBC+/yp9ytJ8v+nKKnbsrm/tQAMzKNHj+5nGKYu++6G5T00q/JeDJqmKJWVlZ8fHh7+z2yfEakTKCZJkt4tSdImnte5HXR+B5pbx7tbLGWAPYx/p1GDdGMSoP9G99/ySp6dUzxGe51fvzbSVdZZ8ybxkcaybESSlH0FBYXbCwv9D+fl5UVzabhnA6RXnnzyybdGIpF3SZKyGesny7KA+6WFkNRIt+bc8W/UMJ8nbzJURyZDiIIWrdLrwCCkhj/eDe2LplwDWE+spdkfjpG2MULYfevWVT9cXFz8SF5eXmTHjh06p/BqUVxcccv4eOgngiCIuAbeH60hyvRcmb4P6P3d5sAhPGsgUPDQq1/9ipuXKsxdDlVVVS8fGhp6nOO4fH1NlvjhrBQ6UgAEE4IJahBUnue+fd0brrsj29oDJ3DKK3QgGKxeHw4P/8XlctXBGjZJNYaam9dfkqvQe3Fx8I6ZmZnPS5I0XFYWPDcUCo1meiGUrWzjxo2v7OjoeAch5Aqw3ZnWnD5OlA4XoQLAqqDxPb2yOW3wBxQyPdhWwWEFVehUcOBQ4MDDwjXD6ime52WGYfYWFBQ8VFxc/ICd3GNVVdWZQ0PHdhcUFDAgMqGCJBMyKSxKgWkNO+P+JUmC0fbWoaGh+zJ9xlpCFMWfSZJ0G+7R6lUuBYbhlr29TAKP5/VQX3tTU9NlK/VSUfilqmrtxMTERVNTU68jhLyc47giCDpEGfBu6FxwGvWhnQ/0/4HF7pHuP6vCpz9nVfhQSAhbLlZvgp8TBAGkRjLL8odYljxWXl7z4OBgl+N8E9lg69atnn379mH9LpyZmb06mUxcTggpNvcsA48Sz4XnoLz+1uiGQY0rz3nf1nWk62dtibLSvs7D8FypE0D5/KkijMfj+mx1UeT3FxWV/NLt9j/S29txOJvnyxZlZWVvD4XCP8aGwb1Ye/ZzgbkKcoP2WvN6fT+bmhpfVYsyz/O/ZBjmDVSekDTZminEnq4xMYwFEHghUl5ZdkEwGDzqRFF2tjgtFDqwbt26db29/X9Djqu4uFgfsuDxuB664447blks571S1NU1faSvr1sviCssDLx3cnJyWbKFdMCqh0E3MDBQOT09/Yq+vr6rZVluTKVSGznsUk1jqTdOQ5wAlDo96PRAZ8M+RoUminji8bgsSRI+H0UGvX6/f1cwGHySZdk9DMMcsMuDj3a+8fHJ98uy/AVJkjBFUb93VVUxrMW70rW2AnkyTdNw7xGO4zyImJkGSU9r6+aL9u3bl9GwWkt4PJ6t8Xj8R/n5+Z6ZmRnQ3maQEct76CzL6r+/VEiWEJXF9ikrKztveHh4t51nbWtr8/b19bXIsnwNFDzP8+fIsjyLIVTw4BmGwT7V2+Cg9KGQrKHcxcLCS+1Vc3+qqKOkoWKXywXlrTIMM0sIO6mq8v/f3p1Ax3WVeQK/9221SqV9LUm2vCYmcRwnbE0Tha0bTEhYbCCBTrqbwCFNumdoTtNwBuIMc5omzTDDGWAOzTKQ9DRpGwJJCEsmEDd0OgTi2Elwx6tsy5IsqSRVSar1bXfO96quXFYkS3bJtvT0/52jI1u2nqVSuf7vbt83EY1GHwmHa39y111/+rvF+H98MdEMjWVZGycn09tGR8e3qSq/VlXVjOu6Go3g6blL33d5nQr6r1L+uM28OZoZ8kSGffHXxWqOpf9v3jtd19O2baeEEKn6+sbHOjpaH1+3bt2vL2REuxBNTU23jYyMfpkxVkd/X1VVOhVDz5O84zjBhVxjLkIIes2yNE2LyMGJrge/umnT+s/u37//vMqqtre3vzqRSPyraZqG/DnY1tnNtc430GmE7s0cuuL7gtnbK/leF4NvAp3EYs2r8/nJXxUKhXhphCjC4fDns9l0RS1WacPTt771f+4ZGBj4L/Ti4zjunvXr17zjXLWh50NT1Js2bXJ/8pOfdJ8+fXpLJpN5Yy6X25LL5agnb6w0jUc/H+9nVP6fuLQThyq2CNd1aZqL/id7vy/9mt7T753q6uqnhBAvtra2/iIQCOx98cUXp4+dLWa989muRS/+lXb0kxtfenp6gj09PbZ8UacljUOHDo1d7s1ws4nH4+2yAyA9LvM9F+Yx52uM/N7j8Xhdf3//+HwXOh/0nD9w4IB46qmn1iqK0mqa5sZ8Pn/F1NTUOiHEaqrzxDmnGyxPKXi80WDpOSh3i9H37z0POOcveyzoKaIoyqCisN9rmr4vFIo8X19f86Lruv20Fkk/98U+sXKx0fP+3nvvVenxe+aZZ6hxT6tpivWFQvbKVGpinRBul6Iona7rhnhpyr30GM72+HnT2LMtbRBF0SjQB6LR8NFIJLa/qiryXCCgv6Dr+kkKPJpF2L17t1c742Ki+hPlU/fx+PbQa17DnF27dhW73cxu5nP7ZXl04403hmcuCZQKOZ3runN5iDG2jXPuBbq3B0k+f8/3wSl9osZ17wYmVlv91pGREapYeVn5KtBpbfDkyZON6XT2+Xw+T2vYxKytrbsjmRz9XiWPdF1d44OpVPK99CRQFCVTU1P9p+Pj47sruea50AtZKpUKFgqFGGOM7vwbTNNsyufzta7rRhzH0eiIXDgcPqFpWpbuyDnnY47jTDY2NqZvueWW9FIf0cDyQ2F13XXX0cKhnkgkqKVxHc20FgqFqKIoNVT+VlEU6kAXVhRFN02T5u5NRVHSqqrSqHEsEAiM03FIwzAKmcyq0Z6eRvNyrjteKnRzt2PHDnrNVROJhHH06FHDMIx6eoyEEBFN02o551Q+uJpmtoQQhmmaYVVVqYpQWtO0VCAQGHNdd1TTtKlwOJwrFAqjjuOYR44coTW8Srfc+xZtWD158uSvqQ8HLfHQ0qPXq97rTDjvNNrL0U9R0J2q4vU9N13zhqUwuPBVoEsNDQ1bR0fHHwsEAnWFQkGn5h01Nc1XjY8P9F/oMzYajdJUzetpREGh7jjise3b3/mulfBCBACwXNFSyKFDh77LGHsH3UzR7C3ttSq+jlfWDc7QAm5jY8MdA6eXxl4eXwY6aWhoWJ9MTv3ScaxmWrsyjOBvb75522svdB3JMIzfmKb5qkikymvSQJt1otHw5mQy+eJyfaIDAPgZzSh1dHS8/vTp07+kfvdyoyftLZIlmivBmdIvmEvLpEuCbwOdpt8zmUz1wYOHnyiVBg0Hg8a3u7q6/vP5rn3TZqHnnnuuLxgM0vSYd1dXOp7y7M6dO1+DqW24nM7VHhJgpeOc7xdCbKbXbHr9pql2GqGXnw6YC+2sp5sA2pDnVYLL5aY/j84ANjc2v/+K9it+fqn7ns/Ft4FO5EYtTdMft23nTbRb0jCMz998802fO5+RemNjY8vY2NhAKBRSylsoOo4zFYvF7k6lUjSdAwAAi2QxblSj0ehH0uk0dWI0KNDlGXlZl2MhJ4bo82gzNIU5jexp/Z24rvvsqlWb3n78+O+HF+lbrpivA71cMBj+XD6f/7SiKIWqqsjOxsbGLy/0uFY8Hr+hv7//SdpsWltby5LJZHnJ1LHu7u5re3t7+yr+aQAAwKKgqp1Hjx79jaIoV9ApDNm/QI66vVCfZ5u7t3HOsrzqd/S6T6jOSXJ8XDQ3tdwxNDJ0/6J8sYtkxQR6aS3lj/r7Bx+jne9NTQ23jYyM0DGGc6LPCwQCn3Nd99NU0rR8Cqb0BHHD4fBj2WyWNlwAAMASEA6H781ms5+h2vuySp/cBDfd2nieQC9vYkTFuWR1T2HZv7GE+wdL7WTBigl0adWqtT0nTvR+gzGlq76++c/Hxs69O5HWzw8ePPjvmUxmc/kPV1Z8Kq3D0DHGf2aMfWAJPI8BAFa07u7u63p7e39OlQ/ptVrW05dFjOi13CuZO/Mo/IwD6bKwV6k6JYuGIyyTzYiOzs4/vFjNgCqx4gKddHZ2XplIJL+ey+Wuamlpv3Vo6ORP5noQ29ratgwODj5b7L1OpRrd6U0R8m6vdK5RcM4fvvbaa3dcztJ/AAArHef8B0KId9GGtmIxsOLxNDkomy7UM0+gl9fipxsA13GYqmm/sG2b9mQtOSsy0CWFGZ9xmf2f2tra/2xw8NTDM386VM3tkUce+UKhUPgr2euXxGIx6ibkBgK6Qt12aDqHpmMKhYLpOM7Pu7u7/7qzs/PUcqtwBQCwnNFr9hNPPLEjmUzeH41G+cxa+rQm7gUzVYmjrnRzFWIsjdTp79C5deYKls6kqWZ7ur0l/sbbP3T7c0vxdNOKDXRZPnD16tVvPnG8f2dtXd23xseHvy2fzLRDvqura1VfX//vVZWH6C5P7oyU0zaqyr3SlV4tX7pzU1V6T0+FcVVVv9fe3v7Zvr6+6VKrAABw8bS3t8cTicTjruteIWu/l7delc2ebNumzn3cFXMU15sx9R40ikfeFMZ+YDPxnov3HVRmxQZ6ua1bt8b27z3whYbmlj3DwycepEYqdKyNc+1RIdxtxVrUC6+qWJrOcagUIOf8e7FY7MnW1tafHjhwYKiyHxcAAMym1ODqy5Zl3UV9A+brVEhUXfFG6wpTvXVyeYyNgt/7vSNYdVU1m5yaZApXxtvirVf19fUNLbXNcBICnbHpRhS/3vO7D9jCHbvxxlf99JFHHv9CoZD5OGNu6TE670D3gj0SiRSmpqa8BguMsf3BYPAZVVWPBIPBkUAgMGlZRl8w6IysWbNmfOYU/WI2TwEA8Cs6jbR69eobTpw48dNwOEy9Bbz1ctlWdi6KRrOsgqm82DVN9paXa+dBI+R9zHEdEQwFPn7llVf+4969e4sH0ZcgBPoM119//TX79x/4qHDZuzgXDZZNfRHI+Qc6kX2xabree2I4Dk310K/pgq6q6vbMFoOlzmpTmqYOm6b9s0Ag8tinPvXxXyzFNRsAgMtt7dq1jceOHXucc36NPFpMU+QLRa/Jcum0nKEFvBuDbC7/bzf0vO7NS31fFAK9zMaNG+vNvPvh3hO9H6dy8GeH+OyBLu/kZpK7KGkHPFWXk/13vSdHqdJQ8ejbmeuGw2Fqh5rJ5/MD4XD4wYaGuvv7+vp6F/qkBABYoe7jnH+CNi/TwKn8iPG5lL9+l/+aAp4GY5qiM9uxcy1NzbedHjn9w6X+2CLQS2gzxfh46u9yudwHdF3ntJZCVeFGR0fPOTqfq08xkSFOT7BIJDI9/SPXaYpT8lVscnKStmAMBgL6P2ta+IFMBg1fAAAWorOz800DAwM/VxRFoZnQ9vZ2NjIy4m1Unq+0a2kjs5wV9UJcHnWjz6U3Xde/ZlnWXyzka7ncVnyg19bWxpLJ5Ac5V/9WCNFWW1vr3eHRE4OmbFzXnvcOT5ptE4bcES8L0cj3VFe++GfsP6LR8NdDoeseSCT2pC/3EwJgKcD+EViI7u7udb29vbsVRdlM4VtdXU0DJO9T6YjafNPuclROr8XytVoq3Qwc2bBhw02HDh06tJCv53JbsYEei3XWcj55TSqVuo8xdo1hGBr9ACnMZegu5Akhp2bIbIE+XWKw2NLVG/HT7ndVVR9SVfUf8/n8E+ezY3IxGhYAACx369evbzh+/PhnLMu62zAMr7yrRMFOzVTkUeO5yBAvH5WX9jB5zbcaGxs/nUgkvrJcHqsVF+jFZvdHPsgY+xjnYiMFpKJQ55wzPzIKdFqDoSfEfOYLdBnk1Hu3UCgIXdd/qyjKZwuFwuPzXRsAAF6usbEx6jjOjomJiW+4rusdUaPpc1rapGIyNBibb4c7kYVmiByt03XozXXdp03TfO1yevxXTKAbRvQK08zdzZi4jXNeRXd0jmN5I2jatEahXr4eXtzxWFxPoXCnuz8Kelmcn2q409EIWVaQngD05JD9cunP5Ii9dBdIU+yfcxznv9EIfTk9Sc4FU6MAcKl1dHRc19/f/+9CCL2Sf5szhXHGiz3SzQILhYPea7gQwu3o6Og4derUYCXXv9R8G+jxeDw0OjralM+b2zVN3WHbznW0A5Lu4GiNpTidnvceAN3QmGnajHPGFIUz1xXeewpw+jgFskRlAGmXOk3lULlX+uFTaz0agVPY0w0C3QTIcrClHe2Ho9HoO6amppbFOgwAwFK1YcOGtuPHjz9umuamSr9GXTW81205OneZQ6/7orq6+v3xePzHL7zwQqbSf+NS8l2gF6fUj781EODvKxSsbZqmadT2lB5URVGyrusGVFVV6YcYDBoFVVUNyyoolmUzIZhXzpVG5qXa7N7GCDp6RuRxMyI3X8g1GHpPNwn0nqZ66PNp5K/r+kvRaPSPk8kk+qUDAFTIMIzvmaa5g17SK7yUN0IPGAFvdF4VrfJe44Xr3u8w5/ZKr305+C7Q29raGizLqs1ms8FwOKZlMhmlqanWGRubiKqq0hAKGUoqNaUXCvnVmqZcZZpmA2NsTTBodFmWpTqOV9xXpR8GjdAbGxvZ8PDwdLDTpjl6oyl3Gp17ze6TyWK1IVX1zpXLAb3rus+EQqH3XHnllcPowAYAUJlgMPi5fD7/l4ZhVNOoWrZFvVBU8pVmVfOFPJV2pR4sv9uy5upb9x7d23s+m5WXCt8F+vmSu8apS8/Pfvazrfl8/r2c87eaprmutNudU3gTGnnTKJx+T9P2NH1PoU6jeBqRU6jT34nH42xgYEA0NDRcm0gk9p/v1wQAAGfQXp3u7u5tfX1933Qcp6mqqspb5qwUlXwlFOqmaY61tbS+r2+w74lKr3u5rPhAn0t9ff0bxsbG3hsKhW63LCtAU/Ryc5x8Asi7w/Inl+y4FgwGv5DP5z91uX6wAAB+EY/HX9nf309Hfdtp8EQ72cuPBF8oWkMntmOLsBH6VMbMfOFCr7UUINDPoaenJ/jss8++Jp1O/3fDMK6hCnI0Oh8bGzurtKDcFFc66kAj9nR9fX1rIpFAoRgAgAp0d3d3joyM/DidTl8lS7rSXiV6vZ3vnPl8aMo9Eok4pm3/7NprN//J008/PT7f5yxlCPQFaGtr6xgcHPwkY+wuOq5Id4i0fkMbKGTpQEJhb5omjc4/nM1mv7mASwMAwBzWrl0bOHbs2I+EEH9UbGNNG5dVb0BVfjT4QtA5wyujAAAcmUlEQVTFOLVNZWJgdXzVjb39vUcu5DpLCQJ9AWikXuqy8wPO+c1CCG/THJHV5Gj6h6blbdsW8Xi8o7+/f2ABlwYAgDkYhnG/ZVnbhBB1tKdJDqBoYzKZGWDTBT5Kf0BVw4TrsmCgWDeEjjKFgiFvrxMNylzhOm3t7W+58847f+WHbpYI9PNAdd+npqa+77ruGxVF4bR2TjvcaXOcd9xBCBql927atOmqpdwzFwBgKdu5c6f2xfu+9Kl0dpI6X9bIWiCyWJcsz+o6jnd2TRb6nBnoVFyEXp8zU2lvBpVKetE0vaFpLGcWRCgc/q+dnZ3/6+DBg2NL+fFYKAT6eaL1nN7e3l8xxrpmfqqu646maQ9Sx7bzvCwAAJTU1DTePpEa+7ZgrkKzoBTgFMR0okiGuRfu9FbmZYHOGAuFwyyXyXr1RKqjVWx4ZNg7cz6Vntqz8Yorbn3ppZdO++WBR6BfgHA4/Of5fJ5qCHuPH9350RSOqqp2IBC4K5vNfuMCLgsAsKLRMeKurq43nOrrf1zXdIWXFjdl4ywiq7p5rU5nPFozA13TdWZbFqurrfN2xlum6f16PDk+3tHZ+Yd9fX3/4acHHIF+AbZu3ao///zzj9m2/cbyakVUMrCxsXHT6dOnX7qAywIArFhXX311ZHIye/3JE72PMMaqIuEIy5u5M+vlnE+HOfGqdDrOWY/XbE0yaIQ/3RfdFcxxnWx7PP7q/v7+F/32YCPQL1BLS8srh4aGnlQUJUx3ivSmKIp4/etfHy5toAMAgAWgQdLw8HDXQP/gQdrIXl1VzSanJpkorY6X9yuX0+7ehmTa6FZmtkCXPTcIZyzXXNvyno2bN/7Sj6/TCPQKqKr6fx3Heb+mabxU4D/pum5dBZcEAFhxVq1adc3AqcEnOecRzrluWqbXBY0pxY6XclMchbkcbZeP0OdqX0nH22hHPO2QtyzLrq2tpbKx9w8PDy+rpisLhUCvQG1t7R8kk8lf19TU8FQqRU+8Y0KItRVcEgBgRVm/fv31Rw4f3cUYW0XHy2Rdde+suZX3Hgu5u52OrZVKche7pJUeqbkCXba5pksEAoG/r66u/vLIyMiwXx9gBHrlfm0YxuuoXaqu6/9qWVZP5ZcEAPC/tV1rt/SePPktwZwtmqpNtzJ1hcvo95ZjLuhBoCPEtOlNBj91ORdMeNcglmM/Go/H39vf359b0AWXKQR6hRoaGt4/Ojr6HU3XDMd2qKLROyu8JACAr9EGuImJic6+k6ceYoxtpJE5hTG1MZVoyp36k58LTcc3NDSwRCLhjcbpGjS4ouNs3qa6fJ42we29oaenp7Gx0dy9e/fC7hCWKQR6hRobG6OJROJZXdfXu677gOMszz66AACXwoYNG6pSqcKVyeTI113b2kxr4bTBjc6Z0zQ6/Z7WvWmELTfFzaW2ttYr7iUbZNHInK5Fn++43s3A8+vWr7/98OHDz1+K7+1yQ6Avgpqami+mUqmPh8Phr2Wz2Y8twiUBAHyH2qC2tq7ZOjLS90PXddsDejHIKboJTZFToMtgN+2zd7HPRq6T05p7TXWMJUYTrCZWwyYmJkZa29veNzAw8KTvHsg5INAXQVdX1xUnT558NhQKfTWXy/3NIlwSAMB36ura3jI1OfEA56KJpsdtu8BURZ1e+/aOADMqGMO9zW/zBjpnLByJeJXgiMoVbxc8HSRubWu7ZXBwkM60rxgI9EViGMb+SCTy82QySV3ZptEdKedclhoGAFiRIpHIrZlM4QFZjIvWzW2r4NVapxCm5imWbXlhTqNtOro235S7TDDvWrbtTblbtlVY3d39btM0f+n3TXAzIdAXSSgU+piu6w2Tk5M7F+mSAAC+EAhE7yoUsv8zGqnWKbhpWt3bvMYcb4Quz5bLnek0jZ7OpOcPdIVPd1CjWu3jY2NWZ1fXLbqu/+Lo0aPzz9f7DAJ9EYXD4TtRxx0AoJz6VVVVPqKqqloMccYUrjFX2ExTVG/zmsIVb6ROYU8jc0M3FjxCD4ZCzMwX6KYgs6qj47bjfX2PrtRZUQQ6AAAsuq1bt4YPHDjww0KhsFUIUT/d8tTrmEYFYhRvQ9y50Do6vdHxMxrVR6NRNjk5Ob0rnkblmUyGCs6MxWKxj46Pj+9e9G9kGUGgAwDAouro6Gg7derUg4qivNJ13YA3KlcU79x4eelW2s0+H1mLXXa1pBDPZrOsrq6OjY+P06dnmpqa3jkyMvL/5ruW3yHQAQBgUVD7087Ozq2nTp36rmEYV1Jgy+ptM98vBI3IaQRONwKEQnx0dNQrAVs63jbQ0dHx4RMnTvyUcz5XBdgVA4EOAAAVozCvqanZnsvlvm7bdg2NxCl4CYX5dAvTsp7m86EgpxE6ra3TzQFdj95otD45OZlqaGj44Ojo6I/nu85KgUAHAICKUPvTvXv3/g/G2IcYYwE6dkYBLqfUKZin66yXpt5nhvxsZNtUCnFab5etU4UQE2vWrHnnsWPHVkzRmIVAoAMAwAXbuHHjqoMHD36Vc/4GznlQhm85+pgMda/wi1j47HggEPA+hwK9pqaGTU1NTba3t7+tr6/vqQv+on0KgQ5wGdE0Jdb+YDnauHFj/cTExKrTp08/pGlaJxV2oTVu2oVeNpL2wluOtOcatZ8L3Qg0Nzd7G+EmJyePNzY2vjaRSAwtx8fsYkOgAwDAeaEw7+8f3pFOJ7+iqqpCU+uxWIzqp3vXoVG1LCBTvqvdK+0qhDdip79DIX0udGSN/m6hUKA730eam5vvHBoaSpzXF7uCINABAGDB1q9fv/Hw4ROfYcx+P2NuRRlCI3fZXIVuCuQRNQp7r2Na8VibUBTlns9+9rOfv+eee9yVWjRmISr6YQAAwMpAy0MtLS1vHx5O3BcMhDcaAY1NTqYW5Zuns+W5XM67llfHXVaUU5TRYDD4yW3btv2T33uZLwYEOgAAzKmnpyd46tSpxmPHTv2lqoq/VhSFn6nwVlnfKTlNTyFOoU7r7zQl397ezoaGhrLRaPSmiYmJX+LHszAIdAAAmFU8/po6IfquGRgYvo8x91o6Qk5T5DQ1nkqlmBDzV3o7F1ofp2l1CnS6SZBT7oZh/L66uvrdo6Ojh8/nR7PSu1si0AEA4Czbt283nn6aqUNDD++0bfsThmEoFLpUtY1QUbbyMq6VkCFOzVny+bxwHOfH8Xj8jv7+fq+uKywcAh0AAM7S2dn59r6+/vsURdkYjUY5TYXTBrbq6mpvJzsFennlt8WgKErGMIy/y+Vyf4+NbxcGgQ4AAJ54PP7K/v6Rj+s6v8myrDCtcdPRMssqTE+P08icjpMZhjE9Yr9QdB3btl1N0/bV1dV9Cg1WKoNABwBY4a6++urIsWPHPpLLOne7wlxFD4es7FacCs96a921tbXeCJ1G56UwrvSRc3Rd//LatWu/+NJLL52u9GIrHQIdAGAFa2lp2ZFKTXwkn8+9njFFoz7ltNN8Ia1Nuap4j5xwzux2l2Ve6Ry5DBhVKZZ+LS/7KpgYWt3dvV1RlENHjx71XbGYy1EFEoEOALDC0Ig8l1PWHTmy/3OMsS2MsXZ6CGQYl7c9PadSgmiq5h07S6fT02vrNJpPJZMsFAxN12KnGwUqdcxV5UddLV1/07G2Y2jPnj3pFfbwXzQIdACAFaS7u3tdIpH4xNRU5k5VLTYap9HzbM1T5muiQtPu1LOcjrARWleXJV3ppqAqEqWd68URv+sdcRsIhyL/cP2rrv/unj17FqcqDUxDoAMArABr1qzp6O8fvLtQKPyFpmnhYgOVM1PrM1uc0jE1qse+UHQ+ncKb0OdS2OdL1d9oVj4YCj3V3dn5twcOHUKXtIsEgQ4A4FM7d+7UHn744abjx0/emUql/kpV1RrDMDiVWS3WSze9kTSFOR1LK+9RXh7w86HjbPJoG22io/PqcuOcEOJEfW3tV4JW+Nt9E33J+a4FFw6BDgDgM1u3bg1nMpmmsbHkrYlE4lbG2JXUp1fWSaepcaqXHgwaZ21UoxA+n37lNAqn4JelYOmmgD6f1uIZYzS8393Z2fkPx48ff8FnD/GShEAHAPCRdevWXZNKTdyZSIzuYIzVqKqqUYDTqJw2qlEAj4/LImwvr8VOoSw3x8kmKedC16ZAb21tZclkkv4dEQqF/i0cDn9pbGzsRz56aJc8BDoAgA9Qdbfh4dEPm2bhrUIITdZJp93ntBZePp1OIUxT7Y5jeevdFPL0+/Lqb/NtiJPoJoF2t1OoB4PBAVVVv7RmzZp/euGFF0Z88LAuKwh0AIBliBqRvO1tb4vu27fvA2NjY39mWda1NK1OI2yyoHPkpd3tM8+I0+/phoDOkssROAW8XB+XKEB0TWeWbZlV4fC3G1pavtbb2/viMnw4fQGBDgCwzGzatGnz+Pj4ttOnT3+IMdbGGAuUj7QXEublKLxpPVxujKMgpze6Jr0vnR+fHrXX1dV50/ZBIyAKZuHxVatXf7Wrq+tJnCm/vBDoAADLwNq1r4pb1tg7Tp488SelVqYa1Wgp/9Jl8FI4UxhTHfZzKe50t8+6AZAb3QhNwVM3NJpSp49T8JeOsgnG2EvNDc2fbG5rPvDCCy8cXwYPoe8h0AEAlihqY/rMM8+8ZXx84rZ0eqpHVdUmVVUVCloaTdM5cgrk4pny4ss5hfpC179JeVEZqfwYG432aR2ewnxqakpwzp9ramr64kc/+tHv79y5s+Ji7rB4EOgA4GuXo6Z2pVatWvcqxyncfOpU/3sZYxTiUQpw2nhGo2pZ8IUCXYY3BS69UbgvuHQrY96NgVx3l9eSIU83C/X19Wx0dJTKs56or6//Wn19/e7Dhw+PVvo9wuJDoAMAXGZ333134PHHH79qdDT1rsnJ5Nsty96k6zrXNI1TqFKQU/EWqsY2MjLiBTBNqQtR3Jkuz47LQKbpca9SW6ly21zO7Hb3yrJ65EifCCEKnPOh1tbWrw0ODt53mR8mmAcCHQDgEtq+fbsaiUT04eFh48iRvhtGRk69Z3Iy/VpFUaoDgUBNLpczKFQpbOX6dk1NjbeOLXedy81qppmfHk3Lo2fnM91eHuJylF4K8nEhRKq5ufnelpaWR/bv34+668sAAh0A4CKjEN+9e7ezYcOGKkVRXjU4OHjrxMTEGxhT2kOhkEZFX+S5cQpWCnMaXVNwyyl0+jgFO/UjP1OutbhxTW6GKw9lCni6ATgXObVOXNeljW6FYDC4p6qq6ts9PT0P79q1y+acv7z6DCxJCHQAgItk69atumVZV6XGU28ZGR17YyGfu5ox1qgqKmcKBa7J5n0VLm12k2fDZXlV27S8r1pTimvnpmV6vzd0w7sRyGQz07+nzy2YBa/Nqe3Y3t+haXxV1+g9BflENBr9TiwW+87AwMDzF+nhgIsMgQ4AUCFqgiJ3fK9uWt2c5YVtk8nkm/Jm4Y8544aiKAHXdTX6Z6bblHonv9xzBrpSrIle3LnuvnygbKheUZfprz4YCBarwjHBYtUxb5RPQa4qqreZjkb+qYmUF+imZQquKC+1tLT873A4/I2jR48uvLXaCkHFe5bTDAUCHQDgPNHO+R07duhUkG3fvn2tARF4xcETh2/WNfXNtuV0U+9vhSvcFcUQ5oxPtxSVVdls1/HWwM/1Ksy9o2nFl2mvLKugmwDvrsB7F9ID3uicRuNy9E3hXfr3izcCTHgfK7VDFV7xGM4e7Orq+taxY8eepPsFTtvlYdlDoMNlsxyPE8HKRlPoExPZq0wz97rRkbFNuXzmJoUrNa5wg5qqea+n0WjUW+OeSk95I2ZqcFIe7BJXFa+W+ryvwqXWptL0pjdXMIphCmxJhno4FGbZXJY11Dew0bFRurkQrnBfrA7H/qU53vzQrbfeepQ+B+fI/QWBDgAwh61bt7aOj4+/Ip1Ovy2RSLxOUZT1nPOqUmlVTuFNvb/piBh9jEa/tBFNrnPTqFiWYaW/Q2QDFPo783Uzk6VYyWyFYwytWJqVjrTRLngamctQV7hiusJNtLa0PRgIBe6nGusYifsbAh0AViQ5Q0Tvb7zxxtjg4GBLOp3bkMukX52cSF5vGMYa0zTjuq6rpXrmnNagKZBlnXPaWCbDW5J/h8hd5nJDG42uZcDP/LzZyBuF8oIvMty9qXvHYaFgiOXyueLHGXcFEwPVVVU/aW5t3b158+Y9u3btchHkKwMCHQBWjDvuuCO4d+/eNiFESy6daxofH393ejLXzhWxynKtZlqWplysilZ5ddBdViy4Ikut6gGNFQom0zSV2ZbjrY3LLmQU7jTilsfPCP1aKm9fKkN5ek18Dt71S1Pq9GupvCpc6bjZSDRS9eOG5oYHYrHY7/bu3Zst36gHKwMCHQB8pXRUzMhms6oQYqudy60em5jc7Dj21fl8vtPQjSbTMiM0Na1xg5u2yVRN9XaLK7y4CY2mrolgrjdKnp5GFy6jE2euI5imq4wLWgc/u484TbN7R8JUddauZ2eVWZWb3OYx4+vyjplpXBmuqav/mRE0Hu7v799Do3D63vfu3Xtm2zucxe/7dhDoALDs0OjzoYceCgSDwfZCqtCUKaTW5/L5NVnT7Mrn86sLuXyHYCJe9o3N+lqnsNK6NnO90JTk7nAKdEIh7NVJZw5z7NLxMbqiWxyFy0Ivcge7PJom/6w85Mv/Dt0YlI6Qef8O9RanP6cz5fRx+vzSdLrgjI9HI5HfRGN1P2hoqN6DDmcwEwIdAJYcCuxHH33UmJqa6hRCxBzHaU8kEquEEN30lslkOjVNq3NsO0y1VCgLqcYKfSM0NS0roMmR9lyCWpDRaTBb2NM70cvRKFxWavOUXjHp496GN6tYpU2ulcu1bqq5Luuolwd+eVlWr1uaULx/l9bBaVRfVvTFO3DGmfpie1vLr+oam/5l/fru3+7evbuY/ACzQKADwEVB5U737dunbdmyRcggokIdHR0dNZzz2urq6mgikXhFIBCoTiQSTYqitDHGmnO5XGsgEGgpFAoxIUS1nPKmzWamaXLZ2tPbVV4W3qR885jXnays6MrszozKJTqzrWjc+3wZyrIXuNzUJkutOo6YXs+WwU4FXOjzZF9xCmoKeEIfp53xVOrVu4ZgFOilCjNsNBSKHAkYxq8a6+t/WlVb9Vx3dzc9dsUdbwDzQKADwILQ+uO9996rfvOb39QVRQmapqk5jhOzbTsUDAZrHcepz+VyNbZt1xQKhajrugEqc8oYq2eMtZUCu951Xdp4JpM0yznXqZ65aZqKbPspp6jl1HUoRJ/CvHCUoV0e6DLMy89kL0zxy5CjekmUypeX9xmX/4ZU7EeuesEt25kS+trlOjltkqNfy53tJTRnPxkIBCZ1NfBIOGoc0HX96TvvvPOAPBfu97VeuDgQ6AC+0hM0jGdXm6bdVl1tNFqWEy8UChS4Qdu2lWAw4O32MoyAblmmapqCKYqj5/OFgKoaIdPMBwIBLVQoOJSghqZxmsrW6XSUEN7HaIqb3iK0iZsx19I0jY51KXIkTYphx7lsHCI/Js9ie2vUpanq8ulpGt1SaBM5wi0PS/lxmuKmP5dnusubk5S3/5TXOhc5PS9vHuTXRmi63Ptzmhova4JyZpZATE+Ze21OSzMCpWpttO5NNxnjQd044nB+SFeVA+Fo7MVYLHhky5Ytp/bt28djsZjb3d3NMZ0OlUKgA/gY7XoeGRlpNAxjQz5vbshkMmsdx1ozNZVZrWlGg22bNM1dviPbjkaj1P2LU9BS0ZTZyECjiqHlo9hwOMympqamQ7qurs6bZqa32Ua7FOA0iqUROAU3jW7lNHd5cRYZzPTnRN4MzHaWm0bN1Cf8QpVuRs7qVqby4ua58jXw4myAUl4ytcCZ2hcMGy9piro/HI306rryVHV1dWZ0dHRqaGgot5zqgsPyg0AHWKFojXvv3r3RfD5fret6PJnMdNt2fnU2m+vWNN5l2y5NldNOcerPTdPn9HpBhVgoxOjXBm3zliNb+X6ugim0Bu7tFC8VZimfhi4/4kWfT0FP68w0CpcV1ejveOvipWIusiqbVD7SlqP0+dqHGsEz7Um9sutl8ezdtDDV4Zwr3uicCepFmmRM6QtpxgnG2emaWN0LTNWHFd06EQ6HT2/evDlJbVJLtd6VXbt2UZ10tB+FSwKBDgDeZrWZTTpkp6nu7u6YaZqNiqI0W5bbksnkml3XarIsp1oIt800czFFMVoYs5tcl9VwLgKcq9x1baEomu26tsro9LbX/4MahjiCMcX1znwxplLg0Rlq+vfIjPXm6RsEeaNQHvIyuOWoXIjSWTLaLsdpWn/697T9rLR0X/b+zCtgmjE2xhk/rarqkKZpCc71qWggeFLV1SFDM3qFJk4HAoGx8q5kOPcNSwkCHQAu2MzNWxRwR48molVVbtiyLEOztGYWUiO5tFVjuYWYaeaijuOEXJcFgkHDyGZztapKI3016LpuWAgW0DRNt21b9ZauhbderzHmqpwXy64J4biMKTRapnn1qdIXT3cL9DFTVUWeOWqBqY5p6MExx3UKAT2QFdyZ1PXqCVV1JoVg2UgkYAoheuvr67O33HJLunxDGl0T5VJhuUGgA8AlQzcA8h/bsWOHUj493dvb6205v+mmm8Q999xDo/azpqrl584WtDS6v/fee73PP3DgAB318hbRt2/fbvT29oru7m4XNc3B7xDoAAAAPoBABwAAWOIWUpsAgQ4AAOADCHQAAAAfQKADAAD4AAIdAADABxDo8DKyoAgeGpgPnisASwcCHQAAwAcQ6AAAAD7gu0BfyFk9AAAAv/FdoMPygZsvAIDFsyIDHRt5AABgMSylgcmKDHQAAAC/QaADAAD4AAIdAADABxDoAAAAPoBABwAA8AEEOgAAgA8g0AEAAHwAgQ4AAOADCHQAAAAfQKADAAD4AAIdAADABxDoAAAAPoBAhyUBDXMAACqDQF9ECCUAALhcEOgAAAA+gEAHAADwAQQ6AACADyDQAQAAfACBDgAA4AMIdAAAAB9AoAMAAPgAAh0AAMAHEOgAAD6AwlaAQAcAAPABBDoAAIAPINABAAB8AIEOAADgAwh0AAAAH0CgAwAA+AACHQAAwAcQ6AAAAD6AQAcAAPABBDoAAIAPINABAAB8AIEOAADgAwh0AAAAH0CgAwAA+AACHQAAwAcQ6AAAAD6AQAcAAPABBDoAAIAPINABAAB8AIEOAAArihBC4Zy7lXzTQgjOOReVXGOxIdABAAB8AIEOAADgAwh0AAAAH0CgAwAA+AACHQAAwAcQ6AAAAD6AQAcAAPABBDrAZbIYZ2EBACQEOgAAgA8g0AEAAHwAgQ4AAOADCHQAAAAfQKADAAD4AAIdAADABxDoAAAAPoBABwAA8AEEOgAAgA8g0AEAAC6iS1UVEoEOAADgAwh0AAAAH0CgAwAA+AACHQAAwAcQ6AAAAD6AQAcAAPABBDoAAIAPINABAAB8AIEOAADgAwh0AAAAH0CgAwAA+AACHZaUS1XzGADAbxDoAAAAPoBAh4sCI20AgEsLgQ4AAOADCHQAAAAfQKADAAD4AAIdAADABxDoiwybwQAA4HJAoAMAAPgAAh0AAMAHEOgAAAA+gEAHAADwAQQ6AACAD1zUQBdCcM658MHjBAAAsKRd1EAHAACASwOBDgAA4AMIdAAAAB9AoAMAAPgAAh0AAMAHEOgAAAA+gEAHAADwAQQ6AADMC3VFlj4EOgAAgA8g0AEuM4x8AGAxINABAAB8AIEOAADgAwh0AAAAH0CgAwAA+AACHQAAwAcQ6AAAAD7w/wFFyEcMht+C6gAAAABJRU5ErkJggg==;" vertex="1" parent="1">
          <mxGeometry x="89" y="345" width="54" height="54" as="geometry" />
        </mxCell>
        <mxCell id="HArgXZm7dbV3BcQ24lHY-32" value="&lt;div align=&quot;left&quot;&gt;Test hardware capabilities&lt;/div&gt;" style="text;html=1;align=left;verticalAlign=middle;whiteSpace=wrap;rounded=0;fontSize=14;fontFamily=arial;" vertex="1" parent="1">
          <mxGeometry x="143" y="357" width="186" height="30" as="geometry" />
        </mxCell>
      </root>
    </mxGraphModel>
  </diagram>
</mxfile>
